%TF.GenerationSoftware,KiCad,Pcbnew,9.0.3*%
%TF.CreationDate,2025-07-31T20:43:01+07:00*%
%TF.ProjectId,DIY Gamepad,44495920-4761-46d6-9570-61642e6b6963,rev?*%
%TF.SameCoordinates,Original*%
%TF.FileFunction,Copper,L2,Bot*%
%TF.FilePolarity,Positive*%
%FSLAX46Y46*%
G04 Gerber Fmt 4.6, Leading zero omitted, Abs format (unit mm)*
G04 Created by KiCad (PCBNEW 9.0.3) date 2025-07-31 20:43:01*
%MOMM*%
%LPD*%
G01*
G04 APERTURE LIST*
%TA.AperFunction,ComponentPad*%
%ADD10C,1.400000*%
%TD*%
%TA.AperFunction,ComponentPad*%
%ADD11C,2.200000*%
%TD*%
%TA.AperFunction,ComponentPad*%
%ADD12C,1.815000*%
%TD*%
%TA.AperFunction,ComponentPad*%
%ADD13R,1.815000X1.815000*%
%TD*%
%TA.AperFunction,ComponentPad*%
%ADD14C,1.524000*%
%TD*%
%TA.AperFunction,ComponentPad*%
%ADD15C,1.500000*%
%TD*%
%TA.AperFunction,ComponentPad*%
%ADD16R,1.700000X1.700000*%
%TD*%
%TA.AperFunction,ComponentPad*%
%ADD17O,1.700000X1.700000*%
%TD*%
%TA.AperFunction,Conductor*%
%ADD18C,0.300000*%
%TD*%
%TA.AperFunction,Conductor*%
%ADD19C,0.500000*%
%TD*%
%TA.AperFunction,Conductor*%
%ADD20C,0.750000*%
%TD*%
G04 APERTURE END LIST*
D10*
%TO.P,R2,1*%
%TO.N,Net-(D2-PadA)*%
X129744973Y-100400300D03*
%TO.P,R2,2*%
%TO.N,/LED2*%
X129744973Y-95320300D03*
%TD*%
%TO.P,R1,1*%
%TO.N,Net-(D1-PadA)*%
X129729973Y-90000300D03*
%TO.P,R1,2*%
%TO.N,/LED1*%
X129729973Y-84920300D03*
%TD*%
D11*
%TO.P,SW4,1,1*%
%TO.N,/Button4*%
X191588723Y-96520300D03*
%TO.P,SW4,2,2*%
%TO.N,GND*%
X185238723Y-99060300D03*
%TD*%
D10*
%TO.P,R3,1*%
%TO.N,Net-(D3-PadA)*%
X129744973Y-109350300D03*
%TO.P,R3,2*%
%TO.N,/LED3*%
X129744973Y-104270300D03*
%TD*%
D12*
%TO.P,D4,A*%
%TO.N,Net-(D4-PadA)*%
X151682900Y-115650300D03*
D13*
%TO.P,D4,C*%
%TO.N,GND*%
X149142900Y-115650300D03*
%TD*%
D10*
%TO.P,R4,1*%
%TO.N,Net-(D4-PadA)*%
X129744973Y-119740300D03*
%TO.P,R4,2*%
%TO.N,/LED4*%
X129744973Y-114660300D03*
%TD*%
D14*
%TO.P,U1,1,GPIO26/ADC0/A0*%
%TO.N,/Button1*%
X139340400Y-85270300D03*
%TO.P,U1,2,GPIO27/ADC1/A1*%
%TO.N,/LED1*%
X139340400Y-87810300D03*
%TO.P,U1,3,GPIO28/ADC2/A2*%
%TO.N,/Button3*%
X139340400Y-90350300D03*
%TO.P,U1,4,GPIO29/ADC3/A3*%
%TO.N,/LED2*%
X139340400Y-92890300D03*
%TO.P,U1,5,GPIO6/SDA*%
%TO.N,/LED3*%
X139340400Y-95430300D03*
%TO.P,U1,6,GPIO7/SCL*%
%TO.N,/LED4*%
X139340400Y-97970300D03*
%TO.P,U1,7,GPIO0/TX*%
%TO.N,Net-(J1-Pin_7)*%
X139340400Y-100510300D03*
%TO.P,U1,8,GPIO1/RX*%
%TO.N,Net-(J2-Pin_7)*%
X154580400Y-100510300D03*
%TO.P,U1,9,GPIO2/SCK*%
%TO.N,Net-(J2-Pin_6)*%
X154580400Y-97970300D03*
%TO.P,U1,10,GPIO4/MISO*%
%TO.N,/Button2*%
X154580400Y-95430300D03*
%TO.P,U1,11,GPIO3/MOSI*%
%TO.N,/Button4*%
X154580400Y-92890300D03*
%TO.P,U1,12,3V3*%
%TO.N,Net-(J2-Pin_3)*%
X154580400Y-90350300D03*
%TO.P,U1,13,GND*%
%TO.N,GND*%
X154580400Y-87810300D03*
%TO.P,U1,14,VBUS*%
%TO.N,Net-(J2-Pin_1)*%
X154580400Y-85270300D03*
%TD*%
D12*
%TO.P,D1,A*%
%TO.N,Net-(D1-PadA)*%
X141839973Y-108770300D03*
D13*
%TO.P,D1,C*%
%TO.N,GND*%
X144379973Y-108770300D03*
%TD*%
D12*
%TO.P,D2,A*%
%TO.N,Net-(D2-PadA)*%
X151729973Y-108770300D03*
D13*
%TO.P,D2,C*%
%TO.N,GND*%
X149189973Y-108770300D03*
%TD*%
D11*
%TO.P,SW2,1,1*%
%TO.N,/Button2*%
X172521223Y-96520300D03*
%TO.P,SW2,2,2*%
%TO.N,GND*%
X166171223Y-99060300D03*
%TD*%
D15*
%TO.P,J3,1,Pin_1*%
%TO.N,GND*%
X137689973Y-112880300D03*
%TD*%
D16*
%TO.P,J1,1,Pin_1*%
%TO.N,/Button1*%
X135415400Y-85170300D03*
D17*
%TO.P,J1,2,Pin_2*%
%TO.N,/LED1*%
X135415400Y-87710300D03*
%TO.P,J1,3,Pin_3*%
%TO.N,/Button3*%
X135415400Y-90250300D03*
%TO.P,J1,4,Pin_4*%
%TO.N,/LED2*%
X135415400Y-92790300D03*
%TO.P,J1,5,Pin_5*%
%TO.N,/LED3*%
X135415400Y-95330300D03*
%TO.P,J1,6,Pin_6*%
%TO.N,/LED4*%
X135415400Y-97870300D03*
%TO.P,J1,7,Pin_7*%
%TO.N,Net-(J1-Pin_7)*%
X135415400Y-100410300D03*
%TD*%
D16*
%TO.P,J2,1,Pin_1*%
%TO.N,Net-(J2-Pin_1)*%
X158490400Y-85280300D03*
D17*
%TO.P,J2,2,Pin_2*%
%TO.N,GND*%
X158490400Y-87820300D03*
%TO.P,J2,3,Pin_3*%
%TO.N,Net-(J2-Pin_3)*%
X158490400Y-90360300D03*
%TO.P,J2,4,Pin_4*%
%TO.N,/Button4*%
X158490400Y-92900300D03*
%TO.P,J2,5,Pin_5*%
%TO.N,/Button2*%
X158490400Y-95440300D03*
%TO.P,J2,6,Pin_6*%
%TO.N,Net-(J2-Pin_6)*%
X158490400Y-97980300D03*
%TO.P,J2,7,Pin_7*%
%TO.N,Net-(J2-Pin_7)*%
X158490400Y-100520300D03*
%TD*%
D11*
%TO.P,SW1,1,1*%
%TO.N,/Button1*%
X121580337Y-87908163D03*
%TO.P,SW1,2,2*%
%TO.N,GND*%
X115230337Y-90448163D03*
%TD*%
D12*
%TO.P,D3,A*%
%TO.N,Net-(D3-PadA)*%
X141849973Y-115650300D03*
D13*
%TO.P,D3,C*%
%TO.N,GND*%
X144389973Y-115650300D03*
%TD*%
D11*
%TO.P,SW3,1,1*%
%TO.N,/Button3*%
X121580337Y-106908163D03*
%TO.P,SW3,2,2*%
%TO.N,GND*%
X115230337Y-109448163D03*
%TD*%
D18*
%TO.N,Net-(D1-PadA)*%
X140131223Y-109220300D02*
X131979973Y-101069050D01*
X131979973Y-101069050D02*
X131979973Y-92250300D01*
X131979973Y-92250300D02*
X129729973Y-90000300D01*
X141839973Y-109220300D02*
X140131223Y-109220300D01*
D19*
%TO.N,GND*%
X185238723Y-99060300D02*
X171746223Y-99060300D01*
X166831223Y-98400300D02*
X166171223Y-99060300D01*
X171746223Y-99060300D02*
X171086223Y-98400300D01*
X111711223Y-92250300D02*
X111711223Y-105950300D01*
X149127579Y-109237747D02*
X149162473Y-109202853D01*
D20*
X158480400Y-87810300D02*
X158490400Y-87820300D01*
D19*
X149117794Y-116087747D02*
X149142900Y-116112853D01*
X111711223Y-105950300D02*
X115209086Y-109448163D01*
X171086223Y-98400300D02*
X166831223Y-98400300D01*
X115209086Y-109448163D02*
X115230337Y-109448163D01*
X115230337Y-90448163D02*
X113513360Y-90448163D01*
X113513360Y-90448163D02*
X111711223Y-92250300D01*
D20*
X154580400Y-87810300D02*
X158480400Y-87810300D01*
X158550400Y-87760300D02*
X158490400Y-87820300D01*
D18*
%TO.N,Net-(D2-PadA)*%
X129744973Y-101134050D02*
X129744973Y-100400300D01*
X129409973Y-100400300D02*
X130079973Y-100400300D01*
X140811223Y-112200300D02*
X129744973Y-101134050D01*
X149761223Y-112200300D02*
X140811223Y-112200300D01*
X151729973Y-108770300D02*
X151729973Y-110231550D01*
X151729973Y-110231550D02*
X149761223Y-112200300D01*
%TO.N,Net-(D3-PadA)*%
X136044973Y-115650300D02*
X141849973Y-115650300D01*
X129744973Y-109350300D02*
X136044973Y-115650300D01*
%TO.N,Net-(D4-PadA)*%
X149071223Y-119740300D02*
X129744973Y-119740300D01*
X151682900Y-115650300D02*
X151682900Y-117128623D01*
X151682900Y-117128623D02*
X149071223Y-119740300D01*
D20*
%TO.N,/LED1*%
X139240400Y-87710300D02*
X139340400Y-87810300D01*
X135415400Y-87710300D02*
X139240400Y-87710300D01*
%TO.N,/LED2*%
X139240400Y-92790300D02*
X139340400Y-92890300D01*
X135415400Y-92790300D02*
X139240400Y-92790300D01*
%TO.N,/LED3*%
X135415400Y-95330300D02*
X139240400Y-95330300D01*
X139240400Y-95330300D02*
X139340400Y-95430300D01*
%TO.N,/LED4*%
X135415400Y-97870300D02*
X139240400Y-97870300D01*
X139240400Y-97870300D02*
X139340400Y-97970300D01*
D18*
%TO.N,/Button1*%
X135415400Y-85170300D02*
X132815400Y-82570300D01*
D20*
X135415400Y-85170300D02*
X139240400Y-85170300D01*
X139240400Y-85170300D02*
X139340400Y-85270300D01*
D18*
X132815400Y-82570300D02*
X126918200Y-82570300D01*
X126918200Y-82570300D02*
X121580337Y-87908163D01*
D20*
%TO.N,/Button2*%
X158480400Y-95430300D02*
X158490400Y-95440300D01*
X154580400Y-95430300D02*
X158480400Y-95430300D01*
D18*
X172521223Y-96520300D02*
X169519086Y-93518163D01*
X160412537Y-93518163D02*
X158490400Y-95440300D01*
X169519086Y-93518163D02*
X160412537Y-93518163D01*
D20*
%TO.N,/Button3*%
X135415400Y-90250300D02*
X139240400Y-90250300D01*
X139240400Y-90250300D02*
X139340400Y-90350300D01*
%TO.N,/Button4*%
X154580400Y-92890300D02*
X158480400Y-92890300D01*
D18*
X158490400Y-92900300D02*
X159452537Y-91938163D01*
X159452537Y-91938163D02*
X187006586Y-91938163D01*
D20*
X158480400Y-92890300D02*
X158490400Y-92900300D01*
D18*
X187006586Y-91938163D02*
X191588723Y-96520300D01*
%TO.N,Net-(J1-Pin_7)*%
X135285400Y-100540300D02*
X135415400Y-100410300D01*
D20*
X135415400Y-100410300D02*
X139240400Y-100410300D01*
X139240400Y-100410300D02*
X139340400Y-100510300D01*
%TO.N,Net-(J2-Pin_3)*%
X158480400Y-90350300D02*
X158490400Y-90360300D01*
X154580400Y-90350300D02*
X158480400Y-90350300D01*
%TO.N,Net-(J2-Pin_1)*%
X158480400Y-85270300D02*
X158490400Y-85280300D01*
X154580400Y-85270300D02*
X158480400Y-85270300D01*
%TO.N,Net-(J2-Pin_7)*%
X158480400Y-100510300D02*
X158490400Y-100520300D01*
X154580400Y-100510300D02*
X158480400Y-100510300D01*
D18*
X158490400Y-101145406D02*
X158490400Y-100520300D01*
D20*
%TO.N,Net-(J2-Pin_6)*%
X158480400Y-97970300D02*
X158490400Y-97980300D01*
X154580400Y-97970300D02*
X158480400Y-97970300D01*
%TD*%
%TA.AperFunction,Conductor*%
%TO.N,GND*%
G36*
X157093498Y-86165485D02*
G01*
X157139253Y-86218289D01*
X157143462Y-86230565D01*
X157143598Y-86230515D01*
X157196602Y-86372628D01*
X157196606Y-86372635D01*
X157282852Y-86487844D01*
X157282855Y-86487847D01*
X157398064Y-86574093D01*
X157398071Y-86574097D01*
X157460302Y-86597307D01*
X157529998Y-86623302D01*
X157585931Y-86665173D01*
X157610349Y-86730637D01*
X157595498Y-86798910D01*
X157574347Y-86827165D01*
X157460671Y-86940841D01*
X157335779Y-87112742D01*
X157239304Y-87302082D01*
X157173642Y-87504170D01*
X157173642Y-87504173D01*
X157163169Y-87570300D01*
X158057388Y-87570300D01*
X158024475Y-87627307D01*
X157990400Y-87754474D01*
X157990400Y-87886126D01*
X158024475Y-88013293D01*
X158057388Y-88070300D01*
X157163169Y-88070300D01*
X157173642Y-88136426D01*
X157173642Y-88136429D01*
X157239304Y-88338517D01*
X157335779Y-88527857D01*
X157460672Y-88699759D01*
X157460676Y-88699764D01*
X157610935Y-88850023D01*
X157610940Y-88850027D01*
X157782844Y-88974922D01*
X157791895Y-88979534D01*
X157842692Y-89027508D01*
X157859487Y-89095329D01*
X157836950Y-89161464D01*
X157791899Y-89200502D01*
X157782582Y-89205249D01*
X157610613Y-89330190D01*
X157610609Y-89330194D01*
X157502323Y-89438481D01*
X157441000Y-89471966D01*
X157414642Y-89474800D01*
X155541707Y-89474800D01*
X155474668Y-89455115D01*
X155454026Y-89438481D01*
X155402866Y-89387321D01*
X155402864Y-89387319D01*
X155242094Y-89270513D01*
X155085067Y-89190503D01*
X155034272Y-89142529D01*
X155017477Y-89074708D01*
X155040014Y-89008573D01*
X155085069Y-88969534D01*
X155241822Y-88889664D01*
X155279116Y-88862568D01*
X154664495Y-88247947D01*
X154751971Y-88224508D01*
X154853330Y-88165989D01*
X154936089Y-88083230D01*
X154994608Y-87981871D01*
X155018047Y-87894394D01*
X155632668Y-88509015D01*
X155659762Y-88471725D01*
X155749942Y-88294737D01*
X155811324Y-88105823D01*
X155811324Y-88105820D01*
X155842400Y-87909621D01*
X155842400Y-87710978D01*
X155811324Y-87514779D01*
X155811324Y-87514776D01*
X155749942Y-87325862D01*
X155659758Y-87148867D01*
X155632668Y-87111583D01*
X155018047Y-87726204D01*
X154994608Y-87638729D01*
X154936089Y-87537370D01*
X154853330Y-87454611D01*
X154751971Y-87396092D01*
X154664494Y-87372652D01*
X155279116Y-86758031D01*
X155279115Y-86758030D01*
X155241832Y-86730941D01*
X155085068Y-86651065D01*
X155034272Y-86603090D01*
X155017477Y-86535269D01*
X155040015Y-86469134D01*
X155085067Y-86430096D01*
X155242094Y-86350087D01*
X155402864Y-86233281D01*
X155454026Y-86182119D01*
X155515349Y-86148634D01*
X155541707Y-86145800D01*
X157026459Y-86145800D01*
X157093498Y-86165485D01*
G37*
%TD.AperFunction*%
%TA.AperFunction,Conductor*%
G36*
X187151552Y-78350551D02*
G01*
X187881229Y-78369041D01*
X187887480Y-78369358D01*
X188613772Y-78424666D01*
X188619955Y-78425295D01*
X189342484Y-78517314D01*
X189348685Y-78518264D01*
X190065645Y-78646764D01*
X190071745Y-78648018D01*
X190781255Y-78812662D01*
X190787305Y-78814228D01*
X191487585Y-79014603D01*
X191493564Y-79016479D01*
X192182760Y-79252052D01*
X192188633Y-79254227D01*
X192865038Y-79524415D01*
X192870791Y-79526885D01*
X193532628Y-79830979D01*
X193538248Y-79833735D01*
X194183843Y-80170965D01*
X194189303Y-80173995D01*
X194816991Y-80543493D01*
X194822321Y-80546815D01*
X195430467Y-80947617D01*
X195435606Y-80951193D01*
X196022697Y-81382301D01*
X196027656Y-81386140D01*
X196592121Y-81846401D01*
X196596888Y-81850493D01*
X197137341Y-82338773D01*
X197141894Y-82343102D01*
X197656887Y-82858095D01*
X197661216Y-82862648D01*
X198149497Y-83403100D01*
X198153589Y-83407867D01*
X198613850Y-83972331D01*
X198617693Y-83977295D01*
X199042669Y-84556035D01*
X199048791Y-84564372D01*
X199052380Y-84569529D01*
X199453175Y-85177665D01*
X199456498Y-85182996D01*
X199825982Y-85810660D01*
X199829031Y-85816153D01*
X200166259Y-86461742D01*
X200169025Y-86467383D01*
X200473101Y-87129178D01*
X200475579Y-87134951D01*
X200745762Y-87811339D01*
X200747944Y-87817231D01*
X200983513Y-88506412D01*
X200985394Y-88512406D01*
X201185763Y-89212664D01*
X201187337Y-89218746D01*
X201351972Y-89928213D01*
X201353237Y-89934367D01*
X201481732Y-90651296D01*
X201482683Y-90657506D01*
X201574698Y-91379994D01*
X201575334Y-91386244D01*
X201630640Y-92112493D01*
X201630958Y-92118768D01*
X201649433Y-92847841D01*
X201649473Y-92850982D01*
X201649473Y-112848449D01*
X201649433Y-112851591D01*
X201630941Y-113581252D01*
X201630623Y-113587526D01*
X201575317Y-114313775D01*
X201574681Y-114320025D01*
X201482665Y-115042512D01*
X201481714Y-115048722D01*
X201353218Y-115765648D01*
X201351953Y-115771802D01*
X201187318Y-116481268D01*
X201185744Y-116487350D01*
X200985374Y-117187606D01*
X200983493Y-117193600D01*
X200747924Y-117882780D01*
X200745742Y-117888672D01*
X200475559Y-118565058D01*
X200473081Y-118570831D01*
X200169005Y-119232624D01*
X200166239Y-119238265D01*
X199829010Y-119883853D01*
X199825961Y-119889346D01*
X199456470Y-120517022D01*
X199453146Y-120522354D01*
X199052360Y-121130473D01*
X199048771Y-121135629D01*
X198617685Y-121722688D01*
X198613840Y-121727656D01*
X198153569Y-122292131D01*
X198149477Y-122296898D01*
X197661197Y-122837350D01*
X197656868Y-122841903D01*
X197141875Y-123356894D01*
X197137322Y-123361223D01*
X196596870Y-123849502D01*
X196592103Y-123853594D01*
X196027639Y-124313853D01*
X196022671Y-124317699D01*
X195435599Y-124748792D01*
X195430442Y-124752381D01*
X194822299Y-125153180D01*
X194816968Y-125156503D01*
X194189315Y-125525980D01*
X194183821Y-125529029D01*
X193538239Y-125866251D01*
X193532599Y-125869017D01*
X192870797Y-126173096D01*
X192865024Y-126175574D01*
X192188637Y-126445755D01*
X192182745Y-126447937D01*
X191493565Y-126683504D01*
X191487571Y-126685385D01*
X190787314Y-126885753D01*
X190781232Y-126887327D01*
X190071766Y-127051961D01*
X190065612Y-127053226D01*
X189348685Y-127181720D01*
X189342475Y-127182671D01*
X188619987Y-127274684D01*
X188613737Y-127275320D01*
X187887490Y-127330625D01*
X187881215Y-127330943D01*
X187269516Y-127346443D01*
X187150007Y-127349472D01*
X187146878Y-127349512D01*
X117151536Y-127349512D01*
X117148395Y-127349472D01*
X116418731Y-127330981D01*
X116412456Y-127330663D01*
X115686207Y-127275357D01*
X115679957Y-127274721D01*
X114957468Y-127182706D01*
X114951258Y-127181755D01*
X114234330Y-127053260D01*
X114228176Y-127051995D01*
X113518710Y-126887360D01*
X113512628Y-126885786D01*
X112812370Y-126685417D01*
X112806376Y-126683536D01*
X112117195Y-126447967D01*
X112111303Y-126445785D01*
X111434916Y-126175603D01*
X111429143Y-126173125D01*
X110767348Y-125869049D01*
X110761707Y-125866283D01*
X110116118Y-125529055D01*
X110110625Y-125526006D01*
X109482962Y-125156522D01*
X109477631Y-125153199D01*
X108869482Y-124752396D01*
X108864325Y-124748806D01*
X108277279Y-124317730D01*
X108272311Y-124313885D01*
X107707834Y-123853615D01*
X107703067Y-123849523D01*
X107162615Y-123361242D01*
X107158062Y-123356913D01*
X106643069Y-122841921D01*
X106638740Y-122837368D01*
X106150460Y-122296915D01*
X106146368Y-122292148D01*
X105686097Y-121727672D01*
X105682252Y-121722704D01*
X105251176Y-121135658D01*
X105247587Y-121130501D01*
X104846783Y-120522352D01*
X104843459Y-120517021D01*
X104473976Y-119889358D01*
X104470927Y-119883865D01*
X104374026Y-119698359D01*
X104346578Y-119645813D01*
X128544473Y-119645813D01*
X128544473Y-119834786D01*
X128574032Y-120021418D01*
X128632427Y-120201136D01*
X128716328Y-120365800D01*
X128718213Y-120369499D01*
X128829283Y-120522373D01*
X128962900Y-120655990D01*
X129115774Y-120767060D01*
X129195320Y-120807590D01*
X129284136Y-120852845D01*
X129284138Y-120852845D01*
X129284141Y-120852847D01*
X129380470Y-120884146D01*
X129463854Y-120911240D01*
X129650487Y-120940800D01*
X129650492Y-120940800D01*
X129839459Y-120940800D01*
X130026091Y-120911240D01*
X130205805Y-120852847D01*
X130374172Y-120767060D01*
X130527046Y-120655990D01*
X130660663Y-120522373D01*
X130719120Y-120441913D01*
X130774451Y-120399249D01*
X130819438Y-120390800D01*
X149135294Y-120390800D01*
X149242376Y-120369499D01*
X149260967Y-120365801D01*
X149379350Y-120316765D01*
X149485892Y-120245577D01*
X149847616Y-119883853D01*
X150152459Y-119579011D01*
X187129473Y-119579011D01*
X187129473Y-119821588D01*
X187161134Y-120062085D01*
X187223920Y-120296404D01*
X187316746Y-120520505D01*
X187316750Y-120520514D01*
X187338947Y-120558961D01*
X187438037Y-120730589D01*
X187438039Y-120730592D01*
X187438040Y-120730593D01*
X187585706Y-120923036D01*
X187585712Y-120923043D01*
X187757229Y-121094560D01*
X187757236Y-121094566D01*
X187823263Y-121145230D01*
X187949684Y-121242236D01*
X188159761Y-121363524D01*
X188383873Y-121456354D01*
X188618184Y-121519138D01*
X188798559Y-121542884D01*
X188858684Y-121550800D01*
X188858685Y-121550800D01*
X189101262Y-121550800D01*
X189149361Y-121544467D01*
X189341762Y-121519138D01*
X189576073Y-121456354D01*
X189800185Y-121363524D01*
X190010262Y-121242236D01*
X190202711Y-121094565D01*
X190374238Y-120923038D01*
X190521909Y-120730589D01*
X190643197Y-120520512D01*
X190736027Y-120296400D01*
X190798811Y-120062089D01*
X190830473Y-119821588D01*
X190830473Y-119579012D01*
X190798811Y-119338511D01*
X190736027Y-119104200D01*
X190643197Y-118880088D01*
X190521909Y-118670011D01*
X190374238Y-118477562D01*
X190374233Y-118477556D01*
X190202716Y-118306039D01*
X190202709Y-118306033D01*
X190010266Y-118158367D01*
X190010265Y-118158366D01*
X190010262Y-118158364D01*
X189800185Y-118037076D01*
X189800178Y-118037073D01*
X189576077Y-117944247D01*
X189458917Y-117912854D01*
X189341762Y-117881462D01*
X189341761Y-117881461D01*
X189341758Y-117881461D01*
X189101262Y-117849800D01*
X189101261Y-117849800D01*
X188858685Y-117849800D01*
X188858684Y-117849800D01*
X188618187Y-117881461D01*
X188383868Y-117944247D01*
X188159767Y-118037073D01*
X188159758Y-118037077D01*
X187949679Y-118158367D01*
X187757236Y-118306033D01*
X187757229Y-118306039D01*
X187585712Y-118477556D01*
X187585706Y-118477563D01*
X187438040Y-118670006D01*
X187316750Y-118880085D01*
X187316746Y-118880094D01*
X187223920Y-119104195D01*
X187161134Y-119338514D01*
X187129473Y-119579011D01*
X150152459Y-119579011D01*
X150244198Y-119487272D01*
X152188172Y-117543297D01*
X152188173Y-117543296D01*
X152188177Y-117543292D01*
X152259365Y-117436750D01*
X152308401Y-117318367D01*
X152333218Y-117193607D01*
X152333400Y-117192694D01*
X152333400Y-116975076D01*
X152353085Y-116908037D01*
X152401104Y-116864592D01*
X152420853Y-116854530D01*
X152600151Y-116724262D01*
X152756862Y-116567551D01*
X152887130Y-116388253D01*
X152987745Y-116190784D01*
X153056231Y-115980007D01*
X153071465Y-115883821D01*
X153090900Y-115761117D01*
X153090900Y-115539482D01*
X153056231Y-115320592D01*
X153024454Y-115222796D01*
X152987745Y-115109816D01*
X152987743Y-115109813D01*
X152987743Y-115109811D01*
X152887129Y-114912346D01*
X152756862Y-114733049D01*
X152600151Y-114576338D01*
X152420853Y-114446070D01*
X152223388Y-114345456D01*
X152012607Y-114276968D01*
X151793717Y-114242300D01*
X151793712Y-114242300D01*
X151572088Y-114242300D01*
X151572083Y-114242300D01*
X151353192Y-114276968D01*
X151142411Y-114345456D01*
X150944946Y-114446070D01*
X150869735Y-114500715D01*
X150765649Y-114576338D01*
X150765647Y-114576340D01*
X150765645Y-114576341D01*
X150724593Y-114617393D01*
X150663270Y-114650878D01*
X150593578Y-114645892D01*
X150537645Y-114604020D01*
X150520731Y-114573043D01*
X150493755Y-114500715D01*
X150493750Y-114500706D01*
X150407590Y-114385612D01*
X150407587Y-114385609D01*
X150292493Y-114299449D01*
X150292486Y-114299445D01*
X150157779Y-114249203D01*
X150157772Y-114249201D01*
X150098244Y-114242800D01*
X149392900Y-114242800D01*
X149392900Y-115096043D01*
X149376421Y-115086529D01*
X149222550Y-115045300D01*
X149063250Y-115045300D01*
X148909379Y-115086529D01*
X148892900Y-115096043D01*
X148892900Y-114242800D01*
X148187555Y-114242800D01*
X148128027Y-114249201D01*
X148128020Y-114249203D01*
X147993313Y-114299445D01*
X147993306Y-114299449D01*
X147878212Y-114385609D01*
X147878209Y-114385612D01*
X147792049Y-114500706D01*
X147792045Y-114500713D01*
X147741803Y-114635420D01*
X147741801Y-114635427D01*
X147735400Y-114694955D01*
X147735400Y-115400300D01*
X148588643Y-115400300D01*
X148579129Y-115416779D01*
X148537900Y-115570650D01*
X148537900Y-115729950D01*
X148579129Y-115883821D01*
X148588643Y-115900300D01*
X147735400Y-115900300D01*
X147735400Y-116605644D01*
X147741801Y-116665172D01*
X147741803Y-116665179D01*
X147792045Y-116799886D01*
X147792049Y-116799893D01*
X147878209Y-116914987D01*
X147878212Y-116914990D01*
X147993306Y-117001150D01*
X147993313Y-117001154D01*
X148128020Y-117051396D01*
X148128027Y-117051398D01*
X148187555Y-117057799D01*
X148187572Y-117057800D01*
X148892900Y-117057800D01*
X148892900Y-116204556D01*
X148909379Y-116214071D01*
X149063250Y-116255300D01*
X149222550Y-116255300D01*
X149376421Y-116214071D01*
X149392900Y-116204556D01*
X149392900Y-117057800D01*
X150098228Y-117057800D01*
X150098244Y-117057799D01*
X150157772Y-117051398D01*
X150157779Y-117051396D01*
X150292486Y-117001154D01*
X150292493Y-117001150D01*
X150407587Y-116914990D01*
X150407590Y-116914987D01*
X150493750Y-116799893D01*
X150493753Y-116799888D01*
X150520730Y-116727557D01*
X150537786Y-116704771D01*
X150552272Y-116680268D01*
X150558454Y-116677160D01*
X150562601Y-116671622D01*
X150589272Y-116661673D01*
X150614702Y-116648894D01*
X150621581Y-116649622D01*
X150628065Y-116647204D01*
X150655877Y-116653253D01*
X150684183Y-116656251D01*
X150691212Y-116660940D01*
X150696338Y-116662055D01*
X150714565Y-116674212D01*
X150719819Y-116678432D01*
X150765649Y-116724262D01*
X150883264Y-116809715D01*
X150885599Y-116811590D01*
X150903925Y-116837895D01*
X150923498Y-116863278D01*
X150923763Y-116866370D01*
X150925539Y-116868919D01*
X150926734Y-116900960D01*
X150929477Y-116932892D01*
X150928028Y-116935637D01*
X150928144Y-116938740D01*
X150911830Y-116966335D01*
X150896871Y-116994687D01*
X150895628Y-116995947D01*
X148838096Y-119053481D01*
X148776773Y-119086966D01*
X148750415Y-119089800D01*
X130819438Y-119089800D01*
X130752399Y-119070115D01*
X130719120Y-119038686D01*
X130660663Y-118958227D01*
X130527046Y-118824610D01*
X130374172Y-118713540D01*
X130205809Y-118627754D01*
X130026091Y-118569359D01*
X129839459Y-118539800D01*
X129839454Y-118539800D01*
X129650492Y-118539800D01*
X129650487Y-118539800D01*
X129463854Y-118569359D01*
X129284136Y-118627754D01*
X129115773Y-118713540D01*
X129028552Y-118776910D01*
X128962900Y-118824610D01*
X128962898Y-118824612D01*
X128962897Y-118824612D01*
X128829285Y-118958224D01*
X128829285Y-118958225D01*
X128829283Y-118958227D01*
X128781583Y-119023879D01*
X128718213Y-119111100D01*
X128632427Y-119279463D01*
X128574032Y-119459181D01*
X128544473Y-119645813D01*
X104346578Y-119645813D01*
X104133698Y-119238276D01*
X104130932Y-119232635D01*
X104085309Y-119133340D01*
X103826850Y-118570828D01*
X103824378Y-118565068D01*
X103789424Y-118477563D01*
X103554191Y-117888666D01*
X103552014Y-117882788D01*
X103552011Y-117882780D01*
X103316442Y-117193597D01*
X103314564Y-117187613D01*
X103277420Y-117057800D01*
X103114190Y-116487340D01*
X103112620Y-116481274D01*
X103091035Y-116388257D01*
X102947979Y-115771780D01*
X102946725Y-115765680D01*
X102818224Y-115048720D01*
X102817274Y-115042515D01*
X102757937Y-114576613D01*
X102756562Y-114565813D01*
X128544473Y-114565813D01*
X128544473Y-114754786D01*
X128574032Y-114941418D01*
X128632427Y-115121136D01*
X128712772Y-115278821D01*
X128718213Y-115289499D01*
X128829283Y-115442373D01*
X128962900Y-115575990D01*
X129115774Y-115687060D01*
X129195320Y-115727590D01*
X129284136Y-115772845D01*
X129284138Y-115772845D01*
X129284141Y-115772847D01*
X129380470Y-115804146D01*
X129463854Y-115831240D01*
X129650487Y-115860800D01*
X129650492Y-115860800D01*
X129839459Y-115860800D01*
X130026091Y-115831240D01*
X130205805Y-115772847D01*
X130374172Y-115687060D01*
X130527046Y-115575990D01*
X130660663Y-115442373D01*
X130771733Y-115289499D01*
X130857520Y-115121132D01*
X130915913Y-114941418D01*
X130920517Y-114912347D01*
X130945473Y-114754786D01*
X130945473Y-114565813D01*
X130915913Y-114379181D01*
X130873679Y-114249201D01*
X130857520Y-114199468D01*
X130857518Y-114199465D01*
X130857518Y-114199463D01*
X130771732Y-114031100D01*
X130660663Y-113878227D01*
X130527046Y-113744610D01*
X130374172Y-113633540D01*
X130205809Y-113547754D01*
X130026091Y-113489359D01*
X129839459Y-113459800D01*
X129839454Y-113459800D01*
X129650492Y-113459800D01*
X129650487Y-113459800D01*
X129463854Y-113489359D01*
X129284136Y-113547754D01*
X129115773Y-113633540D01*
X129028552Y-113696910D01*
X128962900Y-113744610D01*
X128962898Y-113744612D01*
X128962897Y-113744612D01*
X128829285Y-113878224D01*
X128829285Y-113878225D01*
X128829283Y-113878227D01*
X128796044Y-113923977D01*
X128718213Y-114031100D01*
X128632427Y-114199463D01*
X128574032Y-114379181D01*
X128544473Y-114565813D01*
X102756562Y-114565813D01*
X102725258Y-114320027D01*
X102724622Y-114313777D01*
X102721819Y-114276968D01*
X102669315Y-113587519D01*
X102668998Y-113581253D01*
X102666669Y-113489360D01*
X102650513Y-112851787D01*
X102650473Y-112848646D01*
X102650473Y-111901552D01*
X112859837Y-111901552D01*
X112859837Y-112074773D01*
X112883655Y-112225159D01*
X112886935Y-112245864D01*
X112940464Y-112410608D01*
X113019105Y-112564951D01*
X113120923Y-112705091D01*
X113243409Y-112827577D01*
X113383549Y-112929395D01*
X113537892Y-113008036D01*
X113702636Y-113061565D01*
X113873726Y-113088663D01*
X113873727Y-113088663D01*
X114046947Y-113088663D01*
X114046948Y-113088663D01*
X114218038Y-113061565D01*
X114382782Y-113008036D01*
X114537125Y-112929395D01*
X114677265Y-112827577D01*
X114799751Y-112705091D01*
X114901569Y-112564951D01*
X114980210Y-112410608D01*
X115033739Y-112245864D01*
X115060837Y-112074774D01*
X115060837Y-111901552D01*
X115051191Y-111840649D01*
X116789837Y-111840649D01*
X116789837Y-112135676D01*
X116821908Y-112379276D01*
X116828344Y-112428156D01*
X116902549Y-112705093D01*
X116904698Y-112713114D01*
X116904701Y-112713124D01*
X117017591Y-112985663D01*
X117017595Y-112985673D01*
X117165098Y-113241156D01*
X117344689Y-113475203D01*
X117344695Y-113475210D01*
X117553289Y-113683804D01*
X117553296Y-113683810D01*
X117787343Y-113863401D01*
X118042826Y-114010904D01*
X118042827Y-114010904D01*
X118042830Y-114010906D01*
X118315385Y-114123802D01*
X118600344Y-114200156D01*
X118892831Y-114238663D01*
X118892838Y-114238663D01*
X119187836Y-114238663D01*
X119187843Y-114238663D01*
X119480330Y-114200156D01*
X119765289Y-114123802D01*
X120037844Y-114010906D01*
X120293331Y-113863401D01*
X120527379Y-113683809D01*
X120735983Y-113475205D01*
X120915575Y-113241157D01*
X121063080Y-112985670D01*
X121175976Y-112713115D01*
X121252330Y-112428156D01*
X121290837Y-112135669D01*
X121290837Y-111901552D01*
X123019837Y-111901552D01*
X123019837Y-112074773D01*
X123043655Y-112225159D01*
X123046935Y-112245864D01*
X123100464Y-112410608D01*
X123179105Y-112564951D01*
X123280923Y-112705091D01*
X123403409Y-112827577D01*
X123543549Y-112929395D01*
X123697892Y-113008036D01*
X123862636Y-113061565D01*
X124033726Y-113088663D01*
X124033727Y-113088663D01*
X124206947Y-113088663D01*
X124206948Y-113088663D01*
X124378038Y-113061565D01*
X124542782Y-113008036D01*
X124697125Y-112929395D01*
X124837265Y-112827577D01*
X124959751Y-112705091D01*
X125061569Y-112564951D01*
X125140210Y-112410608D01*
X125193739Y-112245864D01*
X125220837Y-112074774D01*
X125220837Y-111901552D01*
X125193739Y-111730462D01*
X125140210Y-111565718D01*
X125061569Y-111411375D01*
X124959751Y-111271235D01*
X124837265Y-111148749D01*
X124697125Y-111046931D01*
X124542782Y-110968290D01*
X124378038Y-110914761D01*
X124378036Y-110914760D01*
X124378035Y-110914760D01*
X124246608Y-110893944D01*
X124206948Y-110887663D01*
X124033726Y-110887663D01*
X123994065Y-110893944D01*
X123862639Y-110914760D01*
X123697889Y-110968291D01*
X123543548Y-111046931D01*
X123487452Y-111087688D01*
X123403409Y-111148749D01*
X123403407Y-111148751D01*
X123403406Y-111148751D01*
X123280925Y-111271232D01*
X123280925Y-111271233D01*
X123280923Y-111271235D01*
X123237196Y-111331419D01*
X123179105Y-111411374D01*
X123100465Y-111565715D01*
X123046934Y-111730465D01*
X123019837Y-111901552D01*
X121290837Y-111901552D01*
X121290837Y-111840657D01*
X121252330Y-111548170D01*
X121175976Y-111263211D01*
X121063080Y-110990656D01*
X121012941Y-110903813D01*
X120915575Y-110735169D01*
X120735984Y-110501122D01*
X120735978Y-110501115D01*
X120527384Y-110292521D01*
X120527377Y-110292515D01*
X120293330Y-110112924D01*
X120037847Y-109965421D01*
X120037837Y-109965417D01*
X119765298Y-109852527D01*
X119765291Y-109852525D01*
X119765289Y-109852524D01*
X119480330Y-109776170D01*
X119424585Y-109768831D01*
X119187850Y-109737663D01*
X119187843Y-109737663D01*
X118892831Y-109737663D01*
X118892823Y-109737663D01*
X118622227Y-109773289D01*
X118600344Y-109776170D01*
X118340476Y-109845801D01*
X118315385Y-109852524D01*
X118315375Y-109852527D01*
X118042836Y-109965417D01*
X118042826Y-109965421D01*
X117787343Y-110112924D01*
X117553296Y-110292515D01*
X117553289Y-110292521D01*
X117344695Y-110501115D01*
X117344689Y-110501122D01*
X117165098Y-110735169D01*
X117017595Y-110990652D01*
X117017591Y-110990662D01*
X116904701Y-111263201D01*
X116904698Y-111263211D01*
X116828345Y-111548167D01*
X116828343Y-111548178D01*
X116789837Y-111840649D01*
X115051191Y-111840649D01*
X115033739Y-111730462D01*
X114980210Y-111565718D01*
X114901569Y-111411375D01*
X114799751Y-111271235D01*
X114747219Y-111218703D01*
X114713734Y-111157380D01*
X114718718Y-111087688D01*
X114760590Y-111031755D01*
X114826054Y-111007338D01*
X114854298Y-111008549D01*
X115104409Y-111048163D01*
X115356265Y-111048163D01*
X115605006Y-111008765D01*
X115844521Y-110930943D01*
X116068912Y-110816609D01*
X116068918Y-110816605D01*
X116171034Y-110742413D01*
X116171035Y-110742413D01*
X115554362Y-110125741D01*
X115585595Y-110112804D01*
X115708434Y-110030726D01*
X115812900Y-109926260D01*
X115894978Y-109803421D01*
X115907914Y-109772188D01*
X116524587Y-110388861D01*
X116524587Y-110388860D01*
X116598779Y-110286744D01*
X116598783Y-110286738D01*
X116713117Y-110062347D01*
X116790939Y-109822832D01*
X116830337Y-109574091D01*
X116830337Y-109322235D01*
X116822118Y-109270346D01*
X116822118Y-109270345D01*
X116819816Y-109255813D01*
X128544473Y-109255813D01*
X128544473Y-109444786D01*
X128574032Y-109631418D01*
X128632427Y-109811136D01*
X128711038Y-109965417D01*
X128718213Y-109979499D01*
X128829283Y-110132373D01*
X128962900Y-110265990D01*
X129115774Y-110377060D01*
X129195320Y-110417590D01*
X129284136Y-110462845D01*
X129284138Y-110462845D01*
X129284141Y-110462847D01*
X129380470Y-110494146D01*
X129463854Y-110521240D01*
X129650487Y-110550800D01*
X129650492Y-110550800D01*
X129839452Y-110550800D01*
X129839454Y-110550800D01*
X129937684Y-110535241D01*
X130006973Y-110544195D01*
X130044760Y-110570033D01*
X135630297Y-116155571D01*
X135630304Y-116155577D01*
X135736844Y-116226764D01*
X135736843Y-116226764D01*
X135771517Y-116241126D01*
X135855229Y-116275801D01*
X135855233Y-116275801D01*
X135855234Y-116275802D01*
X135980901Y-116300800D01*
X135980904Y-116300800D01*
X140525197Y-116300800D01*
X140592236Y-116320485D01*
X140635680Y-116368504D01*
X140645743Y-116388253D01*
X140776011Y-116567551D01*
X140932722Y-116724262D01*
X141112020Y-116854530D01*
X141173032Y-116885617D01*
X141309484Y-116955143D01*
X141309486Y-116955143D01*
X141309489Y-116955145D01*
X141402724Y-116985439D01*
X141520265Y-117023631D01*
X141739156Y-117058300D01*
X141739161Y-117058300D01*
X141960790Y-117058300D01*
X142179680Y-117023631D01*
X142390457Y-116955145D01*
X142587926Y-116854530D01*
X142767224Y-116724262D01*
X142808279Y-116683206D01*
X142869600Y-116649722D01*
X142939291Y-116654706D01*
X142995225Y-116696576D01*
X143012141Y-116727555D01*
X143039118Y-116799886D01*
X143039122Y-116799893D01*
X143125282Y-116914987D01*
X143125285Y-116914990D01*
X143240379Y-117001150D01*
X143240386Y-117001154D01*
X143375093Y-117051396D01*
X143375100Y-117051398D01*
X143434628Y-117057799D01*
X143434645Y-117057800D01*
X144139973Y-117057800D01*
X144139973Y-116204556D01*
X144156452Y-116214071D01*
X144310323Y-116255300D01*
X144469623Y-116255300D01*
X144623494Y-116214071D01*
X144639973Y-116204556D01*
X144639973Y-117057800D01*
X145345301Y-117057800D01*
X145345317Y-117057799D01*
X145404845Y-117051398D01*
X145404852Y-117051396D01*
X145539559Y-117001154D01*
X145539566Y-117001150D01*
X145654660Y-116914990D01*
X145654663Y-116914987D01*
X145740823Y-116799893D01*
X145740827Y-116799886D01*
X145791069Y-116665179D01*
X145791071Y-116665172D01*
X145797472Y-116605644D01*
X145797473Y-116605627D01*
X145797473Y-115900300D01*
X144944230Y-115900300D01*
X144953744Y-115883821D01*
X144994973Y-115729950D01*
X144994973Y-115570650D01*
X144953744Y-115416779D01*
X144944230Y-115400300D01*
X145797473Y-115400300D01*
X145797473Y-114694972D01*
X145797472Y-114694955D01*
X145791071Y-114635427D01*
X145791069Y-114635420D01*
X145740827Y-114500713D01*
X145740823Y-114500706D01*
X145654663Y-114385612D01*
X145654660Y-114385609D01*
X145539566Y-114299449D01*
X145539559Y-114299445D01*
X145404852Y-114249203D01*
X145404845Y-114249201D01*
X145345317Y-114242800D01*
X144639973Y-114242800D01*
X144639973Y-115096043D01*
X144623494Y-115086529D01*
X144469623Y-115045300D01*
X144310323Y-115045300D01*
X144156452Y-115086529D01*
X144139973Y-115096043D01*
X144139973Y-114242800D01*
X143434628Y-114242800D01*
X143375100Y-114249201D01*
X143375093Y-114249203D01*
X143240386Y-114299445D01*
X143240379Y-114299449D01*
X143125285Y-114385609D01*
X143125282Y-114385612D01*
X143039122Y-114500706D01*
X143039118Y-114500713D01*
X143012141Y-114573044D01*
X142970270Y-114628978D01*
X142904805Y-114653395D01*
X142836532Y-114638543D01*
X142808278Y-114617392D01*
X142767226Y-114576340D01*
X142767224Y-114576338D01*
X142587926Y-114446070D01*
X142390461Y-114345456D01*
X142179680Y-114276968D01*
X141960790Y-114242300D01*
X141960785Y-114242300D01*
X141739161Y-114242300D01*
X141739156Y-114242300D01*
X141520265Y-114276968D01*
X141309484Y-114345456D01*
X141112019Y-114446070D01*
X141036808Y-114500715D01*
X140932722Y-114576338D01*
X140932720Y-114576340D01*
X140932719Y-114576340D01*
X140776013Y-114733046D01*
X140776013Y-114733047D01*
X140776011Y-114733049D01*
X140715617Y-114816173D01*
X140645746Y-114912342D01*
X140645744Y-114912345D01*
X140645743Y-114912347D01*
X140635680Y-114932095D01*
X140587709Y-114982890D01*
X140525197Y-114999800D01*
X136365781Y-114999800D01*
X136298742Y-114980115D01*
X136278100Y-114963481D01*
X135238596Y-113923977D01*
X136999846Y-113923977D01*
X136999846Y-113923978D01*
X137034831Y-113949396D01*
X137210137Y-114038718D01*
X137397267Y-114099521D01*
X137591591Y-114130300D01*
X137788355Y-114130300D01*
X137982678Y-114099521D01*
X138169808Y-114038718D01*
X138345116Y-113949395D01*
X138380098Y-113923978D01*
X138380099Y-113923978D01*
X137689974Y-113233853D01*
X137689973Y-113233853D01*
X136999846Y-113923977D01*
X135238596Y-113923977D01*
X134096536Y-112781917D01*
X136439973Y-112781917D01*
X136439973Y-112978682D01*
X136470751Y-113173005D01*
X136531554Y-113360135D01*
X136620878Y-113535445D01*
X136646292Y-113570425D01*
X136646293Y-113570425D01*
X137336419Y-112880300D01*
X137336419Y-112880299D01*
X137290342Y-112834222D01*
X137339973Y-112834222D01*
X137339973Y-112926378D01*
X137363825Y-113015395D01*
X137409903Y-113095205D01*
X137475068Y-113160370D01*
X137554878Y-113206448D01*
X137643895Y-113230300D01*
X137736051Y-113230300D01*
X137825068Y-113206448D01*
X137904878Y-113160370D01*
X137970043Y-113095205D01*
X138016121Y-113015395D01*
X138039973Y-112926378D01*
X138039973Y-112880299D01*
X138043526Y-112880299D01*
X138043526Y-112880301D01*
X138733651Y-113570426D01*
X138733651Y-113570425D01*
X138759068Y-113535443D01*
X138848391Y-113360135D01*
X138909194Y-113173005D01*
X138939973Y-112978682D01*
X138939973Y-112781917D01*
X138909194Y-112587594D01*
X138848391Y-112400464D01*
X138759069Y-112225158D01*
X138733651Y-112190173D01*
X138733650Y-112190173D01*
X138043526Y-112880299D01*
X138039973Y-112880299D01*
X138039973Y-112834222D01*
X138016121Y-112745205D01*
X137970043Y-112665395D01*
X137904878Y-112600230D01*
X137825068Y-112554152D01*
X137736051Y-112530300D01*
X137643895Y-112530300D01*
X137554878Y-112554152D01*
X137475068Y-112600230D01*
X137409903Y-112665395D01*
X137363825Y-112745205D01*
X137339973Y-112834222D01*
X137290342Y-112834222D01*
X136646293Y-112190172D01*
X136646293Y-112190173D01*
X136620875Y-112225159D01*
X136620872Y-112225163D01*
X136531555Y-112400461D01*
X136470751Y-112587594D01*
X136439973Y-112781917D01*
X134096536Y-112781917D01*
X133151239Y-111836620D01*
X136999845Y-111836620D01*
X137689973Y-112526746D01*
X137689974Y-112526746D01*
X138380098Y-111836620D01*
X138380098Y-111836619D01*
X138345118Y-111811205D01*
X138169808Y-111721881D01*
X137982678Y-111661078D01*
X137788355Y-111630300D01*
X137591591Y-111630300D01*
X137397267Y-111661078D01*
X137210134Y-111721882D01*
X137034836Y-111811199D01*
X137034832Y-111811202D01*
X136999846Y-111836620D01*
X136999845Y-111836620D01*
X133151239Y-111836620D01*
X130964706Y-109650087D01*
X130931221Y-109588764D01*
X130929914Y-109543013D01*
X130945473Y-109444781D01*
X130945473Y-109255819D01*
X130945473Y-109255813D01*
X130915913Y-109069181D01*
X130857518Y-108889463D01*
X130771732Y-108721100D01*
X130755067Y-108698163D01*
X130660663Y-108568227D01*
X130527046Y-108434610D01*
X130374172Y-108323540D01*
X130205809Y-108237754D01*
X130026091Y-108179359D01*
X129839459Y-108149800D01*
X129839454Y-108149800D01*
X129650492Y-108149800D01*
X129650487Y-108149800D01*
X129463854Y-108179359D01*
X129284136Y-108237754D01*
X129115773Y-108323540D01*
X129028552Y-108386910D01*
X128962900Y-108434610D01*
X128962898Y-108434612D01*
X128962897Y-108434612D01*
X128829285Y-108568224D01*
X128829285Y-108568225D01*
X128829283Y-108568227D01*
X128799241Y-108609576D01*
X128718213Y-108721100D01*
X128632427Y-108889463D01*
X128574032Y-109069181D01*
X128544473Y-109255813D01*
X116819816Y-109255813D01*
X116790939Y-109073493D01*
X116713117Y-108833978D01*
X116598779Y-108609579D01*
X116524587Y-108507464D01*
X116524587Y-108507463D01*
X115907914Y-109124136D01*
X115894978Y-109092905D01*
X115812900Y-108970066D01*
X115708434Y-108865600D01*
X115585595Y-108783522D01*
X115554361Y-108770584D01*
X116171035Y-108153911D01*
X116068920Y-108079720D01*
X115844521Y-107965382D01*
X115605006Y-107887560D01*
X115356265Y-107848163D01*
X115104409Y-107848163D01*
X114855667Y-107887560D01*
X114616152Y-107965382D01*
X114391750Y-108079722D01*
X114289638Y-108153910D01*
X114289637Y-108153911D01*
X114906311Y-108770584D01*
X114875079Y-108783522D01*
X114752240Y-108865600D01*
X114647774Y-108970066D01*
X114565696Y-109092905D01*
X114552758Y-109124137D01*
X113936085Y-108507463D01*
X113936084Y-108507464D01*
X113861896Y-108609576D01*
X113747556Y-108833978D01*
X113669734Y-109073493D01*
X113630337Y-109322234D01*
X113630337Y-109574091D01*
X113669734Y-109822832D01*
X113747556Y-110062347D01*
X113861894Y-110286746D01*
X113936085Y-110388860D01*
X113936085Y-110388861D01*
X114552758Y-109772187D01*
X114565696Y-109803421D01*
X114647774Y-109926260D01*
X114752240Y-110030726D01*
X114875079Y-110112804D01*
X114906311Y-110125740D01*
X114289637Y-110742413D01*
X114291935Y-110771612D01*
X114277570Y-110839990D01*
X114228518Y-110889746D01*
X114160353Y-110905084D01*
X114148920Y-110903813D01*
X114046948Y-110887663D01*
X113873726Y-110887663D01*
X113834065Y-110893944D01*
X113702639Y-110914760D01*
X113537889Y-110968291D01*
X113383548Y-111046931D01*
X113327452Y-111087688D01*
X113243409Y-111148749D01*
X113243407Y-111148751D01*
X113243406Y-111148751D01*
X113120925Y-111271232D01*
X113120925Y-111271233D01*
X113120923Y-111271235D01*
X113077196Y-111331419D01*
X113019105Y-111411374D01*
X112940465Y-111565715D01*
X112886934Y-111730465D01*
X112859837Y-111901552D01*
X102650473Y-111901552D01*
X102650473Y-106782201D01*
X119979837Y-106782201D01*
X119979837Y-107034124D01*
X120019247Y-107282948D01*
X120097097Y-107522546D01*
X120175750Y-107676910D01*
X120206567Y-107737392D01*
X120211469Y-107747011D01*
X120359538Y-107950812D01*
X120359542Y-107950817D01*
X120537682Y-108128957D01*
X120537687Y-108128961D01*
X120687429Y-108237754D01*
X120741492Y-108277033D01*
X120884521Y-108349910D01*
X120965953Y-108391402D01*
X120965955Y-108391402D01*
X120965958Y-108391404D01*
X121205552Y-108469253D01*
X121454375Y-108508663D01*
X121454376Y-108508663D01*
X121706298Y-108508663D01*
X121706299Y-108508663D01*
X121955122Y-108469253D01*
X122194716Y-108391404D01*
X122419182Y-108277033D01*
X122622993Y-108128956D01*
X122801130Y-107950819D01*
X122949207Y-107747008D01*
X123063578Y-107522542D01*
X123141427Y-107282948D01*
X123180837Y-107034125D01*
X123180837Y-106782201D01*
X123141427Y-106533378D01*
X123063578Y-106293784D01*
X123063576Y-106293781D01*
X123063576Y-106293779D01*
X123022084Y-106212347D01*
X122949207Y-106069318D01*
X122930289Y-106043280D01*
X122801135Y-105865513D01*
X122801131Y-105865508D01*
X122622991Y-105687368D01*
X122622986Y-105687364D01*
X122419185Y-105539295D01*
X122419184Y-105539294D01*
X122419182Y-105539293D01*
X122349084Y-105503576D01*
X122194720Y-105424923D01*
X121955122Y-105347073D01*
X121706299Y-105307663D01*
X121454375Y-105307663D01*
X121329963Y-105327368D01*
X121205551Y-105347073D01*
X120965953Y-105424923D01*
X120741488Y-105539295D01*
X120537687Y-105687364D01*
X120537682Y-105687368D01*
X120359542Y-105865508D01*
X120359538Y-105865513D01*
X120211469Y-106069314D01*
X120097097Y-106293779D01*
X120019247Y-106533377D01*
X119979837Y-106782201D01*
X102650473Y-106782201D01*
X102650473Y-102479011D01*
X104129473Y-102479011D01*
X104129473Y-102721588D01*
X104161134Y-102962085D01*
X104223920Y-103196404D01*
X104289452Y-103354612D01*
X104316749Y-103420512D01*
X104438037Y-103630589D01*
X104438039Y-103630592D01*
X104438040Y-103630593D01*
X104585706Y-103823036D01*
X104585712Y-103823043D01*
X104757229Y-103994560D01*
X104757235Y-103994565D01*
X104949684Y-104142236D01*
X105159761Y-104263524D01*
X105383873Y-104356354D01*
X105618184Y-104419138D01*
X105798559Y-104442884D01*
X105858684Y-104450800D01*
X105858685Y-104450800D01*
X106101262Y-104450800D01*
X106149361Y-104444467D01*
X106341762Y-104419138D01*
X106576073Y-104356354D01*
X106800185Y-104263524D01*
X106952105Y-104175813D01*
X128544473Y-104175813D01*
X128544473Y-104364786D01*
X128574032Y-104551418D01*
X128632427Y-104731136D01*
X128718213Y-104899499D01*
X128829283Y-105052373D01*
X128962900Y-105185990D01*
X129115774Y-105297060D01*
X129136584Y-105307663D01*
X129284136Y-105382845D01*
X129284138Y-105382845D01*
X129284141Y-105382847D01*
X129380470Y-105414146D01*
X129463854Y-105441240D01*
X129650487Y-105470800D01*
X129650492Y-105470800D01*
X129839459Y-105470800D01*
X130026091Y-105441240D01*
X130076312Y-105424922D01*
X130205805Y-105382847D01*
X130374172Y-105297060D01*
X130527046Y-105185990D01*
X130660663Y-105052373D01*
X130771733Y-104899499D01*
X130857520Y-104731132D01*
X130915913Y-104551418D01*
X130945473Y-104364786D01*
X130945473Y-104175813D01*
X130915913Y-103989181D01*
X130888819Y-103905797D01*
X130857520Y-103809468D01*
X130857518Y-103809465D01*
X130857518Y-103809463D01*
X130771732Y-103641100D01*
X130764098Y-103630593D01*
X130660663Y-103488227D01*
X130527046Y-103354610D01*
X130374172Y-103243540D01*
X130205809Y-103157754D01*
X130026091Y-103099359D01*
X129839459Y-103069800D01*
X129839454Y-103069800D01*
X129650492Y-103069800D01*
X129650487Y-103069800D01*
X129463854Y-103099359D01*
X129284136Y-103157754D01*
X129115773Y-103243540D01*
X129043644Y-103295946D01*
X128962900Y-103354610D01*
X128962898Y-103354612D01*
X128962897Y-103354612D01*
X128829285Y-103488224D01*
X128829285Y-103488225D01*
X128829283Y-103488227D01*
X128781583Y-103553879D01*
X128718213Y-103641100D01*
X128632427Y-103809463D01*
X128574032Y-103989181D01*
X128544473Y-104175813D01*
X106952105Y-104175813D01*
X107010262Y-104142236D01*
X107070576Y-104095954D01*
X107101052Y-104072571D01*
X107148624Y-104036066D01*
X107202711Y-103994565D01*
X107374238Y-103823038D01*
X107521909Y-103630589D01*
X107643197Y-103420512D01*
X107736027Y-103196400D01*
X107798811Y-102962089D01*
X107830473Y-102721588D01*
X107830473Y-102479012D01*
X107798811Y-102238511D01*
X107736027Y-102004200D01*
X107643197Y-101780088D01*
X107521909Y-101570011D01*
X107431970Y-101452800D01*
X107374239Y-101377563D01*
X107374233Y-101377556D01*
X107202716Y-101206039D01*
X107202709Y-101206033D01*
X107010266Y-101058367D01*
X107010265Y-101058366D01*
X107010262Y-101058364D01*
X106800185Y-100937076D01*
X106800178Y-100937073D01*
X106576077Y-100844247D01*
X106341758Y-100781461D01*
X106101262Y-100749800D01*
X106101261Y-100749800D01*
X105858685Y-100749800D01*
X105858684Y-100749800D01*
X105618187Y-100781461D01*
X105383868Y-100844247D01*
X105159767Y-100937073D01*
X105159758Y-100937077D01*
X104949679Y-101058367D01*
X104757236Y-101206033D01*
X104757229Y-101206039D01*
X104585712Y-101377556D01*
X104585706Y-101377563D01*
X104438040Y-101570006D01*
X104316750Y-101780085D01*
X104316746Y-101780094D01*
X104223920Y-102004195D01*
X104161134Y-102238514D01*
X104129473Y-102479011D01*
X102650473Y-102479011D01*
X102650473Y-100305813D01*
X128544473Y-100305813D01*
X128544473Y-100494786D01*
X128574032Y-100681418D01*
X128632427Y-100861136D01*
X128700599Y-100994929D01*
X128718213Y-101029499D01*
X128829283Y-101182373D01*
X128962900Y-101315990D01*
X129077555Y-101399292D01*
X129115775Y-101427061D01*
X129151582Y-101445305D01*
X129198389Y-101486898D01*
X129227468Y-101530418D01*
X129239697Y-101548721D01*
X140396549Y-112705573D01*
X140396552Y-112705575D01*
X140396554Y-112705577D01*
X140503096Y-112776765D01*
X140621479Y-112825801D01*
X140621483Y-112825801D01*
X140621484Y-112825802D01*
X140747151Y-112850800D01*
X140747154Y-112850800D01*
X149825294Y-112850800D01*
X149909838Y-112833982D01*
X149950967Y-112825801D01*
X150069350Y-112776765D01*
X150175892Y-112705577D01*
X152235250Y-110646219D01*
X152306438Y-110539677D01*
X152355474Y-110421294D01*
X152364273Y-110377060D01*
X152380473Y-110295619D01*
X152380473Y-110095076D01*
X152400158Y-110028037D01*
X152448177Y-109984592D01*
X152467926Y-109974530D01*
X152647224Y-109844262D01*
X152803935Y-109687551D01*
X152934203Y-109508253D01*
X153034818Y-109310784D01*
X153103304Y-109100007D01*
X153118538Y-109003821D01*
X153137973Y-108881117D01*
X153137973Y-108659482D01*
X153103304Y-108440592D01*
X153065271Y-108323540D01*
X153034818Y-108229816D01*
X153034816Y-108229813D01*
X153034816Y-108229811D01*
X152981740Y-108125644D01*
X152934203Y-108032347D01*
X152803935Y-107853049D01*
X152647224Y-107696338D01*
X152467926Y-107566070D01*
X152270461Y-107465456D01*
X152059680Y-107396968D01*
X151840790Y-107362300D01*
X151840785Y-107362300D01*
X151619161Y-107362300D01*
X151619156Y-107362300D01*
X151400265Y-107396968D01*
X151189484Y-107465456D01*
X150992019Y-107566070D01*
X150916808Y-107620715D01*
X150812722Y-107696338D01*
X150812720Y-107696340D01*
X150812718Y-107696341D01*
X150771666Y-107737393D01*
X150710343Y-107770878D01*
X150640651Y-107765892D01*
X150584718Y-107724020D01*
X150567804Y-107693043D01*
X150540828Y-107620715D01*
X150540823Y-107620706D01*
X150454663Y-107505612D01*
X150454660Y-107505609D01*
X150339566Y-107419449D01*
X150339559Y-107419445D01*
X150204852Y-107369203D01*
X150204845Y-107369201D01*
X150145317Y-107362800D01*
X149439973Y-107362800D01*
X149439973Y-108216043D01*
X149423494Y-108206529D01*
X149269623Y-108165300D01*
X149110323Y-108165300D01*
X148956452Y-108206529D01*
X148939973Y-108216043D01*
X148939973Y-107362800D01*
X148234628Y-107362800D01*
X148175100Y-107369201D01*
X148175093Y-107369203D01*
X148040386Y-107419445D01*
X148040379Y-107419449D01*
X147925285Y-107505609D01*
X147925282Y-107505612D01*
X147839122Y-107620706D01*
X147839118Y-107620713D01*
X147788876Y-107755420D01*
X147788874Y-107755427D01*
X147782473Y-107814955D01*
X147782473Y-108520300D01*
X148635716Y-108520300D01*
X148626202Y-108536779D01*
X148584973Y-108690650D01*
X148584973Y-108849950D01*
X148626202Y-109003821D01*
X148635716Y-109020300D01*
X147782473Y-109020300D01*
X147782473Y-109725644D01*
X147788874Y-109785172D01*
X147788876Y-109785179D01*
X147839118Y-109919886D01*
X147839122Y-109919893D01*
X147925282Y-110034987D01*
X147925285Y-110034990D01*
X148040379Y-110121150D01*
X148040386Y-110121154D01*
X148175093Y-110171396D01*
X148175100Y-110171398D01*
X148234628Y-110177799D01*
X148234645Y-110177800D01*
X148939973Y-110177800D01*
X148939973Y-109324556D01*
X148956452Y-109334071D01*
X149110323Y-109375300D01*
X149269623Y-109375300D01*
X149423494Y-109334071D01*
X149439973Y-109324556D01*
X149439973Y-110177800D01*
X150145301Y-110177800D01*
X150145317Y-110177799D01*
X150204845Y-110171398D01*
X150204852Y-110171396D01*
X150339559Y-110121154D01*
X150339566Y-110121150D01*
X150454660Y-110034990D01*
X150454663Y-110034987D01*
X150540823Y-109919893D01*
X150540826Y-109919888D01*
X150567803Y-109847557D01*
X150584961Y-109824635D01*
X150599604Y-109800027D01*
X150605635Y-109797017D01*
X150609674Y-109791622D01*
X150636501Y-109781615D01*
X150662122Y-109768831D01*
X150668822Y-109769559D01*
X150675138Y-109767204D01*
X150703115Y-109773289D01*
X150731582Y-109776386D01*
X150738437Y-109780973D01*
X150743411Y-109782055D01*
X150761913Y-109794434D01*
X150767020Y-109798560D01*
X150812722Y-109844262D01*
X150920598Y-109922638D01*
X150923059Y-109924627D01*
X150941213Y-109950844D01*
X150960683Y-109976093D01*
X150960964Y-109979367D01*
X150962835Y-109982069D01*
X150963933Y-110013938D01*
X150966662Y-110045706D01*
X150965128Y-110048611D01*
X150965242Y-110051898D01*
X150948934Y-110079303D01*
X150934057Y-110107501D01*
X150932813Y-110108762D01*
X149528096Y-111513481D01*
X149466773Y-111546966D01*
X149440415Y-111549800D01*
X141132031Y-111549800D01*
X141064992Y-111530115D01*
X141044350Y-111513481D01*
X130757675Y-101226806D01*
X130724190Y-101165483D01*
X130729174Y-101095791D01*
X130745037Y-101066241D01*
X130771733Y-101029499D01*
X130857520Y-100861132D01*
X130915913Y-100681418D01*
X130919453Y-100659068D01*
X130945473Y-100494786D01*
X130945473Y-100305813D01*
X130915913Y-100119181D01*
X130885528Y-100025667D01*
X130857520Y-99939468D01*
X130857518Y-99939465D01*
X130857518Y-99939463D01*
X130811223Y-99848605D01*
X130771733Y-99771101D01*
X130660663Y-99618227D01*
X130527046Y-99484610D01*
X130374172Y-99373540D01*
X130329513Y-99350785D01*
X130205809Y-99287754D01*
X130026091Y-99229359D01*
X129839459Y-99199800D01*
X129839454Y-99199800D01*
X129650492Y-99199800D01*
X129650487Y-99199800D01*
X129463854Y-99229359D01*
X129284136Y-99287754D01*
X129115773Y-99373540D01*
X129060288Y-99413853D01*
X128962900Y-99484610D01*
X128962898Y-99484612D01*
X128962897Y-99484612D01*
X128829285Y-99618224D01*
X128829285Y-99618225D01*
X128829283Y-99618227D01*
X128811384Y-99642863D01*
X128718213Y-99771100D01*
X128632427Y-99939463D01*
X128574032Y-100119181D01*
X128544473Y-100305813D01*
X102650473Y-100305813D01*
X102650473Y-92901552D01*
X112859837Y-92901552D01*
X112859837Y-93074773D01*
X112879762Y-93200580D01*
X112886935Y-93245864D01*
X112940464Y-93410608D01*
X113019105Y-93564951D01*
X113120923Y-93705091D01*
X113243409Y-93827577D01*
X113383549Y-93929395D01*
X113537892Y-94008036D01*
X113702636Y-94061565D01*
X113873726Y-94088663D01*
X113873727Y-94088663D01*
X114046947Y-94088663D01*
X114046948Y-94088663D01*
X114218038Y-94061565D01*
X114382782Y-94008036D01*
X114537125Y-93929395D01*
X114677265Y-93827577D01*
X114799751Y-93705091D01*
X114901569Y-93564951D01*
X114980210Y-93410608D01*
X115033739Y-93245864D01*
X115060837Y-93074774D01*
X115060837Y-92901552D01*
X115051191Y-92840649D01*
X116789837Y-92840649D01*
X116789837Y-93135676D01*
X116812619Y-93308714D01*
X116828344Y-93428156D01*
X116904698Y-93713114D01*
X116904701Y-93713124D01*
X117017591Y-93985663D01*
X117017595Y-93985673D01*
X117165098Y-94241156D01*
X117344689Y-94475203D01*
X117344695Y-94475210D01*
X117553289Y-94683804D01*
X117553296Y-94683810D01*
X117787343Y-94863401D01*
X118042826Y-95010904D01*
X118042827Y-95010904D01*
X118042830Y-95010906D01*
X118253633Y-95098223D01*
X118315370Y-95123796D01*
X118315385Y-95123802D01*
X118600344Y-95200156D01*
X118892831Y-95238663D01*
X118892838Y-95238663D01*
X119187836Y-95238663D01*
X119187843Y-95238663D01*
X119285448Y-95225813D01*
X128544473Y-95225813D01*
X128544473Y-95414786D01*
X128574032Y-95601418D01*
X128632427Y-95781136D01*
X128688276Y-95890745D01*
X128718213Y-95949499D01*
X128829283Y-96102373D01*
X128962900Y-96235990D01*
X129115774Y-96347060D01*
X129195320Y-96387590D01*
X129284136Y-96432845D01*
X129284138Y-96432845D01*
X129284141Y-96432847D01*
X129380470Y-96464146D01*
X129463854Y-96491240D01*
X129650487Y-96520800D01*
X129650492Y-96520800D01*
X129839459Y-96520800D01*
X130026091Y-96491240D01*
X130044218Y-96485350D01*
X130205805Y-96432847D01*
X130374172Y-96347060D01*
X130527046Y-96235990D01*
X130660663Y-96102373D01*
X130771733Y-95949499D01*
X130857520Y-95781132D01*
X130915913Y-95601418D01*
X130924597Y-95546587D01*
X130945473Y-95414786D01*
X130945473Y-95225813D01*
X130915913Y-95039181D01*
X130857518Y-94859463D01*
X130771732Y-94691100D01*
X130660663Y-94538227D01*
X130527046Y-94404610D01*
X130374172Y-94293540D01*
X130329513Y-94270785D01*
X130205809Y-94207754D01*
X130026091Y-94149359D01*
X129839459Y-94119800D01*
X129839454Y-94119800D01*
X129650492Y-94119800D01*
X129650487Y-94119800D01*
X129463854Y-94149359D01*
X129284136Y-94207754D01*
X129115773Y-94293540D01*
X129037358Y-94350513D01*
X128962900Y-94404610D01*
X128962898Y-94404612D01*
X128962897Y-94404612D01*
X128829285Y-94538224D01*
X128829285Y-94538225D01*
X128829283Y-94538227D01*
X128819301Y-94551966D01*
X128718213Y-94691100D01*
X128632427Y-94859463D01*
X128574032Y-95039181D01*
X128544473Y-95225813D01*
X119285448Y-95225813D01*
X119480330Y-95200156D01*
X119765289Y-95123802D01*
X119765301Y-95123796D01*
X119765304Y-95123796D01*
X119780226Y-95117614D01*
X119807335Y-95106386D01*
X119807336Y-95106386D01*
X120037837Y-95010909D01*
X120037838Y-95010908D01*
X120037844Y-95010906D01*
X120293331Y-94863401D01*
X120527379Y-94683809D01*
X120735983Y-94475205D01*
X120915575Y-94241157D01*
X121063080Y-93985670D01*
X121175976Y-93713115D01*
X121252330Y-93428156D01*
X121290837Y-93135669D01*
X121290837Y-92901552D01*
X123019837Y-92901552D01*
X123019837Y-93074773D01*
X123039762Y-93200580D01*
X123046935Y-93245864D01*
X123100464Y-93410608D01*
X123179105Y-93564951D01*
X123280923Y-93705091D01*
X123403409Y-93827577D01*
X123543549Y-93929395D01*
X123697892Y-94008036D01*
X123862636Y-94061565D01*
X124033726Y-94088663D01*
X124033727Y-94088663D01*
X124206947Y-94088663D01*
X124206948Y-94088663D01*
X124378038Y-94061565D01*
X124542782Y-94008036D01*
X124697125Y-93929395D01*
X124837265Y-93827577D01*
X124959751Y-93705091D01*
X125061569Y-93564951D01*
X125140210Y-93410608D01*
X125193739Y-93245864D01*
X125220837Y-93074774D01*
X125220837Y-92901552D01*
X125193739Y-92730462D01*
X125140210Y-92565718D01*
X125061569Y-92411375D01*
X124959751Y-92271235D01*
X124837265Y-92148749D01*
X124697125Y-92046931D01*
X124609396Y-92002231D01*
X124542784Y-91968291D01*
X124542783Y-91968290D01*
X124542782Y-91968290D01*
X124378038Y-91914761D01*
X124378036Y-91914760D01*
X124378035Y-91914760D01*
X124228762Y-91891118D01*
X124206948Y-91887663D01*
X124033726Y-91887663D01*
X124011912Y-91891118D01*
X123862639Y-91914760D01*
X123697889Y-91968291D01*
X123543548Y-92046931D01*
X123487452Y-92087688D01*
X123403409Y-92148749D01*
X123403407Y-92148751D01*
X123403406Y-92148751D01*
X123280925Y-92271232D01*
X123280925Y-92271233D01*
X123280923Y-92271235D01*
X123280451Y-92271885D01*
X123179105Y-92411374D01*
X123100465Y-92565715D01*
X123046934Y-92730465D01*
X123019837Y-92901552D01*
X121290837Y-92901552D01*
X121290837Y-92840657D01*
X121252330Y-92548170D01*
X121175976Y-92263211D01*
X121063080Y-91990656D01*
X121035092Y-91942180D01*
X120915575Y-91735169D01*
X120735984Y-91501122D01*
X120735978Y-91501115D01*
X120527384Y-91292521D01*
X120527377Y-91292515D01*
X120293330Y-91112924D01*
X120037847Y-90965421D01*
X120037837Y-90965417D01*
X119765298Y-90852527D01*
X119765291Y-90852525D01*
X119765289Y-90852524D01*
X119480330Y-90776170D01*
X119423697Y-90768714D01*
X119187850Y-90737663D01*
X119187843Y-90737663D01*
X118892831Y-90737663D01*
X118892823Y-90737663D01*
X118614422Y-90774316D01*
X118600344Y-90776170D01*
X118426198Y-90822832D01*
X118315385Y-90852524D01*
X118315375Y-90852527D01*
X118042836Y-90965417D01*
X118042826Y-90965421D01*
X117787343Y-91112924D01*
X117553296Y-91292515D01*
X117553289Y-91292521D01*
X117344695Y-91501115D01*
X117344689Y-91501122D01*
X117165098Y-91735169D01*
X117017595Y-91990652D01*
X117017591Y-91990662D01*
X116904701Y-92263201D01*
X116904698Y-92263211D01*
X116829261Y-92544750D01*
X116828345Y-92548167D01*
X116828343Y-92548178D01*
X116789837Y-92840649D01*
X115051191Y-92840649D01*
X115033739Y-92730462D01*
X114980210Y-92565718D01*
X114901569Y-92411375D01*
X114799751Y-92271235D01*
X114747219Y-92218703D01*
X114713734Y-92157380D01*
X114718718Y-92087688D01*
X114760590Y-92031755D01*
X114826054Y-92007338D01*
X114854298Y-92008549D01*
X115104409Y-92048163D01*
X115356265Y-92048163D01*
X115605006Y-92008765D01*
X115844521Y-91930943D01*
X116068912Y-91816609D01*
X116068918Y-91816605D01*
X116171034Y-91742413D01*
X116171035Y-91742413D01*
X115554362Y-91125741D01*
X115585595Y-91112804D01*
X115708434Y-91030726D01*
X115812900Y-90926260D01*
X115894978Y-90803421D01*
X115907914Y-90772188D01*
X116524587Y-91388861D01*
X116524587Y-91388860D01*
X116598779Y-91286744D01*
X116598783Y-91286738D01*
X116713117Y-91062347D01*
X116790939Y-90822832D01*
X116830337Y-90574091D01*
X116830337Y-90322234D01*
X116790939Y-90073493D01*
X116747327Y-89939265D01*
X116736458Y-89905813D01*
X128529473Y-89905813D01*
X128529473Y-90094786D01*
X128559032Y-90281418D01*
X128617427Y-90461136D01*
X128671133Y-90566539D01*
X128703213Y-90629499D01*
X128814283Y-90782373D01*
X128947900Y-90915990D01*
X129100774Y-91027060D01*
X129170029Y-91062347D01*
X129269136Y-91112845D01*
X129269138Y-91112845D01*
X129269141Y-91112847D01*
X129339666Y-91135762D01*
X129448854Y-91171240D01*
X129635487Y-91200800D01*
X129635492Y-91200800D01*
X129824452Y-91200800D01*
X129824454Y-91200800D01*
X129922684Y-91185241D01*
X129991973Y-91194195D01*
X130029760Y-91220033D01*
X131293154Y-92483427D01*
X131326639Y-92544750D01*
X131329473Y-92571108D01*
X131329473Y-101133121D01*
X131348369Y-101228113D01*
X131348369Y-101228114D01*
X131354470Y-101258787D01*
X131354473Y-101258796D01*
X131389186Y-101342602D01*
X131403508Y-101377177D01*
X131467720Y-101473278D01*
X131474699Y-101483723D01*
X139716550Y-109725574D01*
X139716553Y-109725576D01*
X139792273Y-109776170D01*
X139823096Y-109796765D01*
X139941479Y-109845801D01*
X139941483Y-109845801D01*
X139941484Y-109845802D01*
X140067151Y-109870800D01*
X140067154Y-109870800D01*
X140918958Y-109870800D01*
X140985997Y-109890485D01*
X140991834Y-109894475D01*
X141102020Y-109974530D01*
X141179363Y-110013938D01*
X141299484Y-110075143D01*
X141299486Y-110075143D01*
X141299489Y-110075145D01*
X141360830Y-110095076D01*
X141510265Y-110143631D01*
X141729156Y-110178300D01*
X141729161Y-110178300D01*
X141950790Y-110178300D01*
X142169680Y-110143631D01*
X142204328Y-110132373D01*
X142380457Y-110075145D01*
X142577926Y-109974530D01*
X142757224Y-109844262D01*
X142798279Y-109803206D01*
X142859600Y-109769722D01*
X142929291Y-109774706D01*
X142985225Y-109816576D01*
X143002141Y-109847555D01*
X143029118Y-109919886D01*
X143029122Y-109919893D01*
X143115282Y-110034987D01*
X143115285Y-110034990D01*
X143230379Y-110121150D01*
X143230386Y-110121154D01*
X143365093Y-110171396D01*
X143365100Y-110171398D01*
X143424628Y-110177799D01*
X143424645Y-110177800D01*
X144129973Y-110177800D01*
X144129973Y-109324556D01*
X144146452Y-109334071D01*
X144300323Y-109375300D01*
X144459623Y-109375300D01*
X144613494Y-109334071D01*
X144629973Y-109324556D01*
X144629973Y-110177800D01*
X145335301Y-110177800D01*
X145335317Y-110177799D01*
X145394845Y-110171398D01*
X145394852Y-110171396D01*
X145529559Y-110121154D01*
X145529566Y-110121150D01*
X145644660Y-110034990D01*
X145644663Y-110034987D01*
X145730823Y-109919893D01*
X145730827Y-109919886D01*
X145781069Y-109785179D01*
X145781071Y-109785172D01*
X145787472Y-109725644D01*
X145787473Y-109725627D01*
X145787473Y-109020300D01*
X144934230Y-109020300D01*
X144943744Y-109003821D01*
X144984973Y-108849950D01*
X144984973Y-108690650D01*
X144943744Y-108536779D01*
X144934230Y-108520300D01*
X145787473Y-108520300D01*
X145787473Y-107814972D01*
X145787472Y-107814955D01*
X145781071Y-107755427D01*
X145781069Y-107755420D01*
X145730827Y-107620713D01*
X145730823Y-107620706D01*
X145644663Y-107505612D01*
X145644660Y-107505609D01*
X145529566Y-107419449D01*
X145529559Y-107419445D01*
X145394852Y-107369203D01*
X145394845Y-107369201D01*
X145335317Y-107362800D01*
X144629973Y-107362800D01*
X144629973Y-108216043D01*
X144613494Y-108206529D01*
X144459623Y-108165300D01*
X144300323Y-108165300D01*
X144146452Y-108206529D01*
X144129973Y-108216043D01*
X144129973Y-107362800D01*
X143424628Y-107362800D01*
X143365100Y-107369201D01*
X143365093Y-107369203D01*
X143230386Y-107419445D01*
X143230379Y-107419449D01*
X143115285Y-107505609D01*
X143115282Y-107505612D01*
X143029122Y-107620706D01*
X143029118Y-107620713D01*
X143002141Y-107693044D01*
X142960270Y-107748978D01*
X142894805Y-107773395D01*
X142826532Y-107758543D01*
X142798278Y-107737392D01*
X142757226Y-107696340D01*
X142757224Y-107696338D01*
X142577926Y-107566070D01*
X142380461Y-107465456D01*
X142169680Y-107396968D01*
X141950790Y-107362300D01*
X141950785Y-107362300D01*
X141729161Y-107362300D01*
X141729156Y-107362300D01*
X141510265Y-107396968D01*
X141299484Y-107465456D01*
X141102019Y-107566070D01*
X141026808Y-107620715D01*
X140922722Y-107696338D01*
X140922720Y-107696340D01*
X140922719Y-107696340D01*
X140766013Y-107853046D01*
X140766013Y-107853047D01*
X140766011Y-107853049D01*
X140710065Y-107930050D01*
X140635743Y-108032346D01*
X140535129Y-108229811D01*
X140481305Y-108395462D01*
X140441867Y-108453137D01*
X140377508Y-108480335D01*
X140308661Y-108468420D01*
X140275693Y-108444824D01*
X132666792Y-100835923D01*
X132633307Y-100774600D01*
X132630473Y-100748242D01*
X132630473Y-92186228D01*
X132605475Y-92060561D01*
X132605474Y-92060557D01*
X132600340Y-92048163D01*
X132581315Y-92002232D01*
X132581315Y-92002231D01*
X132556442Y-91942180D01*
X132556440Y-91942177D01*
X132556439Y-91942174D01*
X132546513Y-91927319D01*
X132485251Y-91835632D01*
X132485245Y-91835625D01*
X130949706Y-90300087D01*
X130916221Y-90238764D01*
X130914914Y-90193013D01*
X130930473Y-90094781D01*
X130930473Y-89905819D01*
X130930473Y-89905813D01*
X130900913Y-89719181D01*
X130873819Y-89635797D01*
X130842520Y-89539468D01*
X130842518Y-89539465D01*
X130842518Y-89539463D01*
X130791065Y-89438481D01*
X130756733Y-89371101D01*
X130645663Y-89218227D01*
X130512046Y-89084610D01*
X130359172Y-88973540D01*
X130336243Y-88961857D01*
X130190809Y-88887754D01*
X130011091Y-88829359D01*
X129824459Y-88799800D01*
X129824454Y-88799800D01*
X129635492Y-88799800D01*
X129635487Y-88799800D01*
X129448854Y-88829359D01*
X129269136Y-88887754D01*
X129100773Y-88973540D01*
X129040256Y-89017509D01*
X128947900Y-89084610D01*
X128947898Y-89084612D01*
X128947897Y-89084612D01*
X128814285Y-89218224D01*
X128814285Y-89218225D01*
X128814283Y-89218227D01*
X128776295Y-89270513D01*
X128703213Y-89371100D01*
X128617427Y-89539463D01*
X128559032Y-89719181D01*
X128529473Y-89905813D01*
X116736458Y-89905813D01*
X116713117Y-89833978D01*
X116598779Y-89609579D01*
X116524587Y-89507464D01*
X116524587Y-89507463D01*
X115907914Y-90124136D01*
X115894978Y-90092905D01*
X115812900Y-89970066D01*
X115708434Y-89865600D01*
X115585595Y-89783522D01*
X115554361Y-89770584D01*
X116171035Y-89153911D01*
X116068920Y-89079720D01*
X115844521Y-88965382D01*
X115605006Y-88887560D01*
X115356265Y-88848163D01*
X115104409Y-88848163D01*
X114855667Y-88887560D01*
X114616152Y-88965382D01*
X114391750Y-89079722D01*
X114289638Y-89153910D01*
X114289637Y-89153911D01*
X114906311Y-89770584D01*
X114875079Y-89783522D01*
X114752240Y-89865600D01*
X114647774Y-89970066D01*
X114565696Y-90092905D01*
X114552758Y-90124137D01*
X113936085Y-89507463D01*
X113936084Y-89507464D01*
X113861896Y-89609576D01*
X113747556Y-89833978D01*
X113669734Y-90073493D01*
X113630337Y-90322234D01*
X113630337Y-90574091D01*
X113669734Y-90822832D01*
X113747556Y-91062347D01*
X113861894Y-91286746D01*
X113936085Y-91388860D01*
X113936085Y-91388861D01*
X114552758Y-90772187D01*
X114565696Y-90803421D01*
X114647774Y-90926260D01*
X114752240Y-91030726D01*
X114875079Y-91112804D01*
X114906311Y-91125740D01*
X114289637Y-91742413D01*
X114291935Y-91771612D01*
X114277570Y-91839990D01*
X114228518Y-91889746D01*
X114160353Y-91905084D01*
X114148920Y-91903813D01*
X114046948Y-91887663D01*
X113873726Y-91887663D01*
X113851912Y-91891118D01*
X113702639Y-91914760D01*
X113537889Y-91968291D01*
X113383548Y-92046931D01*
X113327452Y-92087688D01*
X113243409Y-92148749D01*
X113243407Y-92148751D01*
X113243406Y-92148751D01*
X113120925Y-92271232D01*
X113120925Y-92271233D01*
X113120923Y-92271235D01*
X113120451Y-92271885D01*
X113019105Y-92411374D01*
X112940465Y-92565715D01*
X112886934Y-92730465D01*
X112859837Y-92901552D01*
X102650473Y-92901552D01*
X102650473Y-92851573D01*
X102650513Y-92848432D01*
X102658121Y-92548170D01*
X102669002Y-92118755D01*
X102669320Y-92112493D01*
X102671606Y-92082484D01*
X102724625Y-91386240D01*
X102725261Y-91379995D01*
X102727591Y-91361698D01*
X102817277Y-90657495D01*
X102818227Y-90651296D01*
X102946728Y-89934333D01*
X102947978Y-89928249D01*
X103112627Y-89218722D01*
X103114195Y-89212666D01*
X103114196Y-89212664D01*
X103314569Y-88512386D01*
X103316437Y-88506435D01*
X103552023Y-87817204D01*
X103554195Y-87811341D01*
X103554196Y-87811339D01*
X103565835Y-87782201D01*
X119979837Y-87782201D01*
X119979837Y-88034125D01*
X120000384Y-88163853D01*
X120019247Y-88282948D01*
X120097097Y-88522546D01*
X120153255Y-88632761D01*
X120208102Y-88740404D01*
X120211469Y-88747011D01*
X120359538Y-88950812D01*
X120359542Y-88950817D01*
X120537682Y-89128957D01*
X120537687Y-89128961D01*
X120661268Y-89218747D01*
X120741492Y-89277033D01*
X120862091Y-89338481D01*
X120965953Y-89391402D01*
X120965955Y-89391402D01*
X120965958Y-89391404D01*
X121205552Y-89469253D01*
X121454375Y-89508663D01*
X121454376Y-89508663D01*
X121706298Y-89508663D01*
X121706299Y-89508663D01*
X121955122Y-89469253D01*
X122194716Y-89391404D01*
X122419182Y-89277033D01*
X122622993Y-89128956D01*
X122801130Y-88950819D01*
X122949207Y-88747008D01*
X123063578Y-88522542D01*
X123141427Y-88282948D01*
X123180837Y-88034125D01*
X123180837Y-87782201D01*
X123141427Y-87533378D01*
X123099585Y-87404606D01*
X123097591Y-87334766D01*
X123129834Y-87278610D01*
X125582632Y-84825813D01*
X128529473Y-84825813D01*
X128529473Y-85014786D01*
X128559032Y-85201418D01*
X128617427Y-85381136D01*
X128703213Y-85549499D01*
X128814283Y-85702373D01*
X128947900Y-85835990D01*
X129100774Y-85947060D01*
X129180320Y-85987590D01*
X129269136Y-86032845D01*
X129269138Y-86032845D01*
X129269141Y-86032847D01*
X129309979Y-86046116D01*
X129448854Y-86091240D01*
X129635487Y-86120800D01*
X129635492Y-86120800D01*
X129824459Y-86120800D01*
X130011091Y-86091240D01*
X130071573Y-86071588D01*
X130190805Y-86032847D01*
X130359172Y-85947060D01*
X130512046Y-85835990D01*
X130645663Y-85702373D01*
X130756733Y-85549499D01*
X130842520Y-85381132D01*
X130900913Y-85201418D01*
X130905740Y-85170939D01*
X130930473Y-85014786D01*
X130930473Y-84825813D01*
X130900913Y-84639181D01*
X130842518Y-84459463D01*
X130772893Y-84322817D01*
X130756733Y-84291101D01*
X130645663Y-84138227D01*
X130512046Y-84004610D01*
X130359172Y-83893540D01*
X130325733Y-83876502D01*
X130190809Y-83807754D01*
X130011091Y-83749359D01*
X129824459Y-83719800D01*
X129824454Y-83719800D01*
X129635492Y-83719800D01*
X129635487Y-83719800D01*
X129448854Y-83749359D01*
X129269136Y-83807754D01*
X129100773Y-83893540D01*
X129042045Y-83936209D01*
X128947900Y-84004610D01*
X128947898Y-84004612D01*
X128947897Y-84004612D01*
X128814285Y-84138224D01*
X128814285Y-84138225D01*
X128814283Y-84138227D01*
X128778147Y-84187964D01*
X128703213Y-84291100D01*
X128617427Y-84459463D01*
X128559032Y-84639181D01*
X128529473Y-84825813D01*
X125582632Y-84825813D01*
X127151327Y-83257119D01*
X127212650Y-83223634D01*
X127239008Y-83220800D01*
X132494592Y-83220800D01*
X132561631Y-83240485D01*
X132582273Y-83257119D01*
X134028581Y-84703427D01*
X134062066Y-84764750D01*
X134064900Y-84791108D01*
X134064900Y-86068170D01*
X134064901Y-86068176D01*
X134071308Y-86127783D01*
X134121602Y-86262628D01*
X134121606Y-86262635D01*
X134207852Y-86377844D01*
X134207855Y-86377847D01*
X134323064Y-86464093D01*
X134323071Y-86464097D01*
X134454482Y-86513110D01*
X134510416Y-86554981D01*
X134534833Y-86620445D01*
X134519982Y-86688718D01*
X134498831Y-86716973D01*
X134385289Y-86830515D01*
X134260351Y-87002479D01*
X134163844Y-87191885D01*
X134098153Y-87394060D01*
X134064900Y-87604013D01*
X134064900Y-87816586D01*
X134091078Y-87981871D01*
X134098154Y-88026543D01*
X134133858Y-88136429D01*
X134163844Y-88228714D01*
X134260351Y-88418120D01*
X134385290Y-88590086D01*
X134535613Y-88740409D01*
X134707582Y-88865350D01*
X134716346Y-88869816D01*
X134767142Y-88917791D01*
X134783936Y-88985612D01*
X134761398Y-89051747D01*
X134716346Y-89090784D01*
X134707582Y-89095249D01*
X134535613Y-89220190D01*
X134385290Y-89370513D01*
X134260351Y-89542479D01*
X134163844Y-89731885D01*
X134098153Y-89934060D01*
X134076069Y-90073493D01*
X134064900Y-90144013D01*
X134064900Y-90356587D01*
X134098154Y-90566543D01*
X134133895Y-90676543D01*
X134163844Y-90768714D01*
X134260351Y-90958120D01*
X134385290Y-91130086D01*
X134535613Y-91280409D01*
X134707582Y-91405350D01*
X134716346Y-91409816D01*
X134767142Y-91457791D01*
X134783936Y-91525612D01*
X134761398Y-91591747D01*
X134716346Y-91630784D01*
X134707582Y-91635249D01*
X134535613Y-91760190D01*
X134385290Y-91910513D01*
X134260351Y-92082479D01*
X134163844Y-92271885D01*
X134098153Y-92474060D01*
X134076884Y-92608348D01*
X134064900Y-92684013D01*
X134064900Y-92896587D01*
X134065687Y-92901557D01*
X134083320Y-93012889D01*
X134098154Y-93106543D01*
X134143422Y-93245864D01*
X134163844Y-93308714D01*
X134260351Y-93498120D01*
X134385290Y-93670086D01*
X134535613Y-93820409D01*
X134707582Y-93945350D01*
X134716346Y-93949816D01*
X134767142Y-93997791D01*
X134783936Y-94065612D01*
X134761398Y-94131747D01*
X134716346Y-94170784D01*
X134707582Y-94175249D01*
X134535613Y-94300190D01*
X134385290Y-94450513D01*
X134260351Y-94622479D01*
X134163844Y-94811885D01*
X134098153Y-95014060D01*
X134076396Y-95151430D01*
X134064900Y-95224013D01*
X134064900Y-95436587D01*
X134098154Y-95646543D01*
X134133895Y-95756543D01*
X134163844Y-95848714D01*
X134260351Y-96038120D01*
X134385290Y-96210086D01*
X134535613Y-96360409D01*
X134707582Y-96485350D01*
X134716346Y-96489816D01*
X134767142Y-96537791D01*
X134783936Y-96605612D01*
X134761398Y-96671747D01*
X134716346Y-96710784D01*
X134707582Y-96715249D01*
X134535613Y-96840190D01*
X134385290Y-96990513D01*
X134260351Y-97162479D01*
X134163844Y-97351885D01*
X134098153Y-97554060D01*
X134076328Y-97691857D01*
X134064900Y-97764013D01*
X134064900Y-97976587D01*
X134098154Y-98186543D01*
X134138365Y-98310300D01*
X134163844Y-98388714D01*
X134260351Y-98578120D01*
X134385290Y-98750086D01*
X134535613Y-98900409D01*
X134707582Y-99025350D01*
X134716346Y-99029816D01*
X134767142Y-99077791D01*
X134783936Y-99145612D01*
X134761398Y-99211747D01*
X134716346Y-99250784D01*
X134707582Y-99255249D01*
X134535613Y-99380190D01*
X134385290Y-99530513D01*
X134260351Y-99702479D01*
X134163844Y-99891885D01*
X134098153Y-100094060D01*
X134064900Y-100304013D01*
X134064900Y-100516587D01*
X134098154Y-100726543D01*
X134149110Y-100883370D01*
X134163844Y-100928714D01*
X134260351Y-101118120D01*
X134385290Y-101290086D01*
X134535613Y-101440409D01*
X134707579Y-101565348D01*
X134707581Y-101565349D01*
X134707584Y-101565351D01*
X134896988Y-101661857D01*
X135099157Y-101727546D01*
X135309113Y-101760800D01*
X135309114Y-101760800D01*
X135521686Y-101760800D01*
X135521687Y-101760800D01*
X135731643Y-101727546D01*
X135933812Y-101661857D01*
X136123216Y-101565351D01*
X136146108Y-101548719D01*
X136295186Y-101440409D01*
X136295188Y-101440406D01*
X136295192Y-101440404D01*
X136413477Y-101322119D01*
X136474800Y-101288634D01*
X136501158Y-101285800D01*
X138280143Y-101285800D01*
X138347182Y-101305485D01*
X138374429Y-101329264D01*
X138377416Y-101332761D01*
X138377419Y-101332764D01*
X138517936Y-101473281D01*
X138678706Y-101590087D01*
X138765549Y-101634335D01*
X138855767Y-101680305D01*
X138855770Y-101680306D01*
X138876099Y-101686911D01*
X139044764Y-101741713D01*
X139241039Y-101772800D01*
X139241040Y-101772800D01*
X139439760Y-101772800D01*
X139439761Y-101772800D01*
X139636036Y-101741713D01*
X139825032Y-101680305D01*
X140002094Y-101590087D01*
X140162864Y-101473281D01*
X140303381Y-101332764D01*
X140420187Y-101171994D01*
X140510405Y-100994932D01*
X140571813Y-100805936D01*
X140602900Y-100609661D01*
X140602900Y-100410939D01*
X140571813Y-100214664D01*
X140510405Y-100025668D01*
X140510405Y-100025667D01*
X140448744Y-99904652D01*
X140420187Y-99848606D01*
X140303381Y-99687836D01*
X140162864Y-99547319D01*
X140002094Y-99430513D01*
X139845618Y-99350784D01*
X139794823Y-99302810D01*
X139778028Y-99234989D01*
X139800565Y-99168854D01*
X139845618Y-99129815D01*
X140002094Y-99050087D01*
X140162864Y-98933281D01*
X140303381Y-98792764D01*
X140420187Y-98631994D01*
X140510405Y-98454932D01*
X140571813Y-98265936D01*
X140602900Y-98069661D01*
X140602900Y-97870939D01*
X140571813Y-97674664D01*
X140532626Y-97554057D01*
X140510406Y-97485670D01*
X140510405Y-97485667D01*
X140464435Y-97395449D01*
X140420187Y-97308606D01*
X140303381Y-97147836D01*
X140162864Y-97007319D01*
X140002094Y-96890513D01*
X139845618Y-96810784D01*
X139794823Y-96762810D01*
X139778028Y-96694989D01*
X139800565Y-96628854D01*
X139845618Y-96589815D01*
X140002094Y-96510087D01*
X140162864Y-96393281D01*
X140303381Y-96252764D01*
X140420187Y-96091994D01*
X140510405Y-95914932D01*
X140571813Y-95725936D01*
X140602900Y-95529661D01*
X140602900Y-95330939D01*
X140571813Y-95134664D01*
X140531173Y-95009587D01*
X140510406Y-94945670D01*
X140510405Y-94945667D01*
X140420186Y-94768605D01*
X140363876Y-94691101D01*
X140303381Y-94607836D01*
X140162864Y-94467319D01*
X140002094Y-94350513D01*
X139845618Y-94270784D01*
X139794823Y-94222810D01*
X139778028Y-94154989D01*
X139800565Y-94088854D01*
X139845618Y-94049815D01*
X140002094Y-93970087D01*
X140162864Y-93853281D01*
X140303381Y-93712764D01*
X140420187Y-93551994D01*
X140510405Y-93374932D01*
X140571813Y-93185936D01*
X140602900Y-92989661D01*
X140602900Y-92790939D01*
X140571813Y-92594664D01*
X140531144Y-92469496D01*
X140510406Y-92405670D01*
X140510405Y-92405667D01*
X140442239Y-92271885D01*
X140420187Y-92228606D01*
X140303381Y-92067836D01*
X140162864Y-91927319D01*
X140002094Y-91810513D01*
X139845618Y-91730784D01*
X139794823Y-91682810D01*
X139778028Y-91614989D01*
X139800565Y-91548854D01*
X139845618Y-91509815D01*
X140002094Y-91430087D01*
X140162864Y-91313281D01*
X140303381Y-91172764D01*
X140420187Y-91011994D01*
X140510405Y-90834932D01*
X140571813Y-90645936D01*
X140602900Y-90449661D01*
X140602900Y-90250939D01*
X140571813Y-90054664D01*
X140532727Y-89934368D01*
X140510406Y-89865670D01*
X140510405Y-89865667D01*
X140435766Y-89719182D01*
X140420187Y-89688606D01*
X140303381Y-89527836D01*
X140162864Y-89387319D01*
X140002094Y-89270513D01*
X139845618Y-89190784D01*
X139794823Y-89142810D01*
X139778028Y-89074989D01*
X139800565Y-89008854D01*
X139845618Y-88969815D01*
X140002094Y-88890087D01*
X140162864Y-88773281D01*
X140303381Y-88632764D01*
X140420187Y-88471994D01*
X140510405Y-88294932D01*
X140571813Y-88105936D01*
X140602900Y-87909661D01*
X140602900Y-87710939D01*
X140571813Y-87514664D01*
X140523445Y-87365800D01*
X140510406Y-87325670D01*
X140510405Y-87325667D01*
X140432638Y-87173043D01*
X140420187Y-87148606D01*
X140303381Y-86987836D01*
X140162864Y-86847319D01*
X140002094Y-86730513D01*
X139845618Y-86650784D01*
X139794823Y-86602810D01*
X139778028Y-86534989D01*
X139800565Y-86468854D01*
X139845618Y-86429815D01*
X140002094Y-86350087D01*
X140162864Y-86233281D01*
X140303381Y-86092764D01*
X140420187Y-85931994D01*
X140510405Y-85754932D01*
X140571813Y-85565936D01*
X140602900Y-85369661D01*
X140602900Y-85170939D01*
X153317900Y-85170939D01*
X153317900Y-85369661D01*
X153333443Y-85467798D01*
X153348987Y-85565937D01*
X153410393Y-85754929D01*
X153410394Y-85754932D01*
X153451696Y-85835990D01*
X153500613Y-85931994D01*
X153617419Y-86092764D01*
X153757936Y-86233281D01*
X153918706Y-86350087D01*
X154075732Y-86430096D01*
X154126527Y-86478069D01*
X154143322Y-86545890D01*
X154120785Y-86612025D01*
X154075732Y-86651064D01*
X153918966Y-86730941D01*
X153881683Y-86758029D01*
X153881682Y-86758030D01*
X154496306Y-87372652D01*
X154408829Y-87396092D01*
X154307470Y-87454611D01*
X154224711Y-87537370D01*
X154166192Y-87638729D01*
X154142752Y-87726205D01*
X153528130Y-87111582D01*
X153528129Y-87111583D01*
X153501043Y-87148864D01*
X153410857Y-87325862D01*
X153349475Y-87514776D01*
X153349475Y-87514779D01*
X153318400Y-87710978D01*
X153318400Y-87909621D01*
X153349475Y-88105820D01*
X153349475Y-88105823D01*
X153410857Y-88294737D01*
X153501041Y-88471732D01*
X153528130Y-88509015D01*
X153528131Y-88509016D01*
X154142752Y-87894394D01*
X154166192Y-87981871D01*
X154224711Y-88083230D01*
X154307470Y-88165989D01*
X154408829Y-88224508D01*
X154496305Y-88247947D01*
X153881683Y-88862568D01*
X153881683Y-88862569D01*
X153918967Y-88889658D01*
X154075731Y-88969534D01*
X154126527Y-89017509D01*
X154143322Y-89085330D01*
X154120784Y-89151465D01*
X154075731Y-89190504D01*
X153918705Y-89270513D01*
X153757933Y-89387321D01*
X153617421Y-89527833D01*
X153500613Y-89688605D01*
X153410394Y-89865667D01*
X153410393Y-89865670D01*
X153348987Y-90054662D01*
X153326092Y-90199217D01*
X153317900Y-90250939D01*
X153317900Y-90449661D01*
X153333443Y-90547798D01*
X153348987Y-90645937D01*
X153410393Y-90834929D01*
X153410394Y-90834932D01*
X153476882Y-90965420D01*
X153500613Y-91011994D01*
X153617419Y-91172764D01*
X153757936Y-91313281D01*
X153918706Y-91430087D01*
X153973078Y-91457791D01*
X154075180Y-91509815D01*
X154125976Y-91557790D01*
X154142771Y-91625611D01*
X154120233Y-91691746D01*
X154075180Y-91730785D01*
X153918705Y-91810513D01*
X153757933Y-91927321D01*
X153617421Y-92067833D01*
X153500613Y-92228605D01*
X153410394Y-92405667D01*
X153410393Y-92405670D01*
X153348987Y-92594662D01*
X153346666Y-92609316D01*
X153317900Y-92790939D01*
X153317900Y-92989661D01*
X153321579Y-93012887D01*
X153348987Y-93185937D01*
X153410393Y-93374929D01*
X153410394Y-93374932D01*
X153500613Y-93551994D01*
X153617419Y-93712764D01*
X153757936Y-93853281D01*
X153918706Y-93970087D01*
X153973078Y-93997791D01*
X154075180Y-94049815D01*
X154125976Y-94097790D01*
X154142771Y-94165611D01*
X154120233Y-94231746D01*
X154075180Y-94270785D01*
X153918705Y-94350513D01*
X153757933Y-94467321D01*
X153617421Y-94607833D01*
X153500613Y-94768605D01*
X153410394Y-94945667D01*
X153410393Y-94945670D01*
X153348987Y-95134662D01*
X153317900Y-95330939D01*
X153317900Y-95529660D01*
X153348987Y-95725937D01*
X153410393Y-95914929D01*
X153410394Y-95914932D01*
X153500613Y-96091994D01*
X153617419Y-96252764D01*
X153757936Y-96393281D01*
X153918706Y-96510087D01*
X153973078Y-96537791D01*
X154075180Y-96589815D01*
X154125976Y-96637790D01*
X154142771Y-96705611D01*
X154120233Y-96771746D01*
X154075180Y-96810785D01*
X153918705Y-96890513D01*
X153757933Y-97007321D01*
X153617421Y-97147833D01*
X153500613Y-97308605D01*
X153410394Y-97485667D01*
X153410393Y-97485670D01*
X153348987Y-97674662D01*
X153317900Y-97870939D01*
X153317900Y-98069660D01*
X153348987Y-98265937D01*
X153410393Y-98454929D01*
X153410394Y-98454932D01*
X153475243Y-98582203D01*
X153500613Y-98631994D01*
X153617419Y-98792764D01*
X153757936Y-98933281D01*
X153918706Y-99050087D01*
X153973078Y-99077791D01*
X154075180Y-99129815D01*
X154125976Y-99177790D01*
X154142771Y-99245611D01*
X154120233Y-99311746D01*
X154075180Y-99350785D01*
X153918705Y-99430513D01*
X153757933Y-99547321D01*
X153617421Y-99687833D01*
X153500613Y-99848605D01*
X153410394Y-100025667D01*
X153410393Y-100025670D01*
X153348987Y-100214662D01*
X153326831Y-100354550D01*
X153317900Y-100410939D01*
X153317900Y-100609661D01*
X153329265Y-100681418D01*
X153348987Y-100805937D01*
X153410393Y-100994929D01*
X153410394Y-100994932D01*
X153480805Y-101133119D01*
X153500613Y-101171994D01*
X153617419Y-101332764D01*
X153757936Y-101473281D01*
X153918706Y-101590087D01*
X154005549Y-101634335D01*
X154095767Y-101680305D01*
X154095770Y-101680306D01*
X154116099Y-101686911D01*
X154284764Y-101741713D01*
X154481039Y-101772800D01*
X154481040Y-101772800D01*
X154679760Y-101772800D01*
X154679761Y-101772800D01*
X154876036Y-101741713D01*
X155065032Y-101680305D01*
X155242094Y-101590087D01*
X155402864Y-101473281D01*
X155454026Y-101422119D01*
X155515349Y-101388634D01*
X155541707Y-101385800D01*
X157394642Y-101385800D01*
X157461681Y-101405485D01*
X157482323Y-101422119D01*
X157610613Y-101550409D01*
X157782579Y-101675348D01*
X157782581Y-101675349D01*
X157782584Y-101675351D01*
X157971988Y-101771857D01*
X158174157Y-101837546D01*
X158384113Y-101870800D01*
X158384114Y-101870800D01*
X158596686Y-101870800D01*
X158596687Y-101870800D01*
X158806643Y-101837546D01*
X159008812Y-101771857D01*
X159198216Y-101675351D01*
X159315573Y-101590087D01*
X159370186Y-101550409D01*
X159370188Y-101550406D01*
X159370192Y-101550404D01*
X159406907Y-101513689D01*
X163800723Y-101513689D01*
X163800723Y-101686911D01*
X163827821Y-101858001D01*
X163881350Y-102022745D01*
X163959991Y-102177088D01*
X164061809Y-102317228D01*
X164184295Y-102439714D01*
X164324435Y-102541532D01*
X164478778Y-102620173D01*
X164643522Y-102673702D01*
X164814612Y-102700800D01*
X164814613Y-102700800D01*
X164987833Y-102700800D01*
X164987834Y-102700800D01*
X165158924Y-102673702D01*
X165323668Y-102620173D01*
X165478011Y-102541532D01*
X165618151Y-102439714D01*
X165740637Y-102317228D01*
X165842455Y-102177088D01*
X165921096Y-102022745D01*
X165974625Y-101858001D01*
X166001723Y-101686911D01*
X166001723Y-101513689D01*
X165992077Y-101452786D01*
X167730723Y-101452786D01*
X167730723Y-101747813D01*
X167762794Y-101991413D01*
X167769230Y-102040293D01*
X167843435Y-102317230D01*
X167845584Y-102325251D01*
X167845587Y-102325261D01*
X167958477Y-102597800D01*
X167958481Y-102597810D01*
X168105984Y-102853293D01*
X168285575Y-103087340D01*
X168285581Y-103087347D01*
X168494175Y-103295941D01*
X168494182Y-103295947D01*
X168728229Y-103475538D01*
X168983712Y-103623041D01*
X168983713Y-103623041D01*
X168983716Y-103623043D01*
X169256271Y-103735939D01*
X169541230Y-103812293D01*
X169833717Y-103850800D01*
X169833724Y-103850800D01*
X170128722Y-103850800D01*
X170128729Y-103850800D01*
X170421216Y-103812293D01*
X170706175Y-103735939D01*
X170978730Y-103623043D01*
X171234217Y-103475538D01*
X171468265Y-103295946D01*
X171676869Y-103087342D01*
X171856461Y-102853294D01*
X172003966Y-102597807D01*
X172116862Y-102325252D01*
X172193216Y-102040293D01*
X172231723Y-101747806D01*
X172231723Y-101513689D01*
X173960723Y-101513689D01*
X173960723Y-101686911D01*
X173987821Y-101858001D01*
X174041350Y-102022745D01*
X174119991Y-102177088D01*
X174221809Y-102317228D01*
X174344295Y-102439714D01*
X174484435Y-102541532D01*
X174638778Y-102620173D01*
X174803522Y-102673702D01*
X174974612Y-102700800D01*
X174974613Y-102700800D01*
X175147833Y-102700800D01*
X175147834Y-102700800D01*
X175318924Y-102673702D01*
X175483668Y-102620173D01*
X175638011Y-102541532D01*
X175778151Y-102439714D01*
X175900637Y-102317228D01*
X176002455Y-102177088D01*
X176081096Y-102022745D01*
X176134625Y-101858001D01*
X176161723Y-101686911D01*
X176161723Y-101513689D01*
X182868223Y-101513689D01*
X182868223Y-101686911D01*
X182895321Y-101858001D01*
X182948850Y-102022745D01*
X183027491Y-102177088D01*
X183129309Y-102317228D01*
X183251795Y-102439714D01*
X183391935Y-102541532D01*
X183546278Y-102620173D01*
X183711022Y-102673702D01*
X183882112Y-102700800D01*
X183882113Y-102700800D01*
X184055333Y-102700800D01*
X184055334Y-102700800D01*
X184226424Y-102673702D01*
X184391168Y-102620173D01*
X184545511Y-102541532D01*
X184685651Y-102439714D01*
X184808137Y-102317228D01*
X184909955Y-102177088D01*
X184988596Y-102022745D01*
X185042125Y-101858001D01*
X185069223Y-101686911D01*
X185069223Y-101513689D01*
X185059577Y-101452786D01*
X186798223Y-101452786D01*
X186798223Y-101747813D01*
X186830294Y-101991413D01*
X186836730Y-102040293D01*
X186910935Y-102317230D01*
X186913084Y-102325251D01*
X186913087Y-102325261D01*
X187025977Y-102597800D01*
X187025981Y-102597810D01*
X187173484Y-102853293D01*
X187353075Y-103087340D01*
X187353081Y-103087347D01*
X187561675Y-103295941D01*
X187561682Y-103295947D01*
X187795729Y-103475538D01*
X188051212Y-103623041D01*
X188051213Y-103623041D01*
X188051216Y-103623043D01*
X188323771Y-103735939D01*
X188608730Y-103812293D01*
X188901217Y-103850800D01*
X188901224Y-103850800D01*
X189196222Y-103850800D01*
X189196229Y-103850800D01*
X189488716Y-103812293D01*
X189773675Y-103735939D01*
X190046230Y-103623043D01*
X190301717Y-103475538D01*
X190535765Y-103295946D01*
X190744369Y-103087342D01*
X190923961Y-102853294D01*
X191071466Y-102597807D01*
X191184362Y-102325252D01*
X191260716Y-102040293D01*
X191299223Y-101747806D01*
X191299223Y-101513689D01*
X193028223Y-101513689D01*
X193028223Y-101686911D01*
X193055321Y-101858001D01*
X193108850Y-102022745D01*
X193187491Y-102177088D01*
X193289309Y-102317228D01*
X193411795Y-102439714D01*
X193551935Y-102541532D01*
X193706278Y-102620173D01*
X193871022Y-102673702D01*
X194042112Y-102700800D01*
X194042113Y-102700800D01*
X194215333Y-102700800D01*
X194215334Y-102700800D01*
X194386424Y-102673702D01*
X194551168Y-102620173D01*
X194705511Y-102541532D01*
X194845651Y-102439714D01*
X194968137Y-102317228D01*
X195069955Y-102177088D01*
X195148596Y-102022745D01*
X195202125Y-101858001D01*
X195229223Y-101686911D01*
X195229223Y-101513689D01*
X195202125Y-101342599D01*
X195148596Y-101177855D01*
X195069955Y-101023512D01*
X194968137Y-100883372D01*
X194845651Y-100760886D01*
X194705511Y-100659068D01*
X194608543Y-100609661D01*
X194551170Y-100580428D01*
X194551169Y-100580427D01*
X194551168Y-100580427D01*
X194386424Y-100526898D01*
X194386422Y-100526897D01*
X194386421Y-100526897D01*
X194254994Y-100506081D01*
X194215334Y-100499800D01*
X194042112Y-100499800D01*
X194002451Y-100506081D01*
X193871025Y-100526897D01*
X193706275Y-100580428D01*
X193551934Y-100659068D01*
X193495838Y-100699825D01*
X193411795Y-100760886D01*
X193411793Y-100760888D01*
X193411792Y-100760888D01*
X193289311Y-100883369D01*
X193289311Y-100883370D01*
X193289309Y-100883372D01*
X193256366Y-100928714D01*
X193187491Y-101023511D01*
X193108851Y-101177852D01*
X193055320Y-101342602D01*
X193034623Y-101473278D01*
X193028223Y-101513689D01*
X191299223Y-101513689D01*
X191299223Y-101452794D01*
X191260716Y-101160307D01*
X191184362Y-100875348D01*
X191071466Y-100602793D01*
X191021327Y-100515950D01*
X190923961Y-100347306D01*
X190744370Y-100113259D01*
X190744364Y-100113252D01*
X190535770Y-99904658D01*
X190535763Y-99904652D01*
X190301716Y-99725061D01*
X190046233Y-99577558D01*
X190046223Y-99577554D01*
X189773684Y-99464664D01*
X189773677Y-99464662D01*
X189773675Y-99464661D01*
X189488716Y-99388307D01*
X189439836Y-99381871D01*
X189196236Y-99349800D01*
X189196229Y-99349800D01*
X188901217Y-99349800D01*
X188901209Y-99349800D01*
X188622808Y-99386453D01*
X188608730Y-99388307D01*
X188434584Y-99434969D01*
X188323771Y-99464661D01*
X188323761Y-99464664D01*
X188051222Y-99577554D01*
X188051212Y-99577558D01*
X187795729Y-99725061D01*
X187561682Y-99904652D01*
X187561675Y-99904658D01*
X187353081Y-100113252D01*
X187353075Y-100113259D01*
X187173484Y-100347306D01*
X187025981Y-100602789D01*
X187025977Y-100602799D01*
X186913087Y-100875338D01*
X186913084Y-100875348D01*
X186844015Y-101133121D01*
X186836731Y-101160304D01*
X186836729Y-101160315D01*
X186798223Y-101452786D01*
X185059577Y-101452786D01*
X185042125Y-101342599D01*
X184988596Y-101177855D01*
X184909955Y-101023512D01*
X184808137Y-100883372D01*
X184755605Y-100830840D01*
X184722120Y-100769517D01*
X184727104Y-100699825D01*
X184768976Y-100643892D01*
X184834440Y-100619475D01*
X184862684Y-100620686D01*
X185112795Y-100660300D01*
X185364651Y-100660300D01*
X185613392Y-100620902D01*
X185852907Y-100543080D01*
X186077298Y-100428746D01*
X186077304Y-100428742D01*
X186179420Y-100354550D01*
X186179421Y-100354550D01*
X185562748Y-99737878D01*
X185593981Y-99724941D01*
X185716820Y-99642863D01*
X185821286Y-99538397D01*
X185903364Y-99415558D01*
X185916301Y-99384325D01*
X186532973Y-100000998D01*
X186532973Y-100000997D01*
X186607165Y-99898881D01*
X186607169Y-99898875D01*
X186721503Y-99674484D01*
X186799325Y-99434969D01*
X186838723Y-99186228D01*
X186838723Y-98934371D01*
X186799325Y-98685630D01*
X186721503Y-98446115D01*
X186607165Y-98221716D01*
X186532973Y-98119601D01*
X186532973Y-98119600D01*
X185916300Y-98736273D01*
X185903364Y-98705042D01*
X185821286Y-98582203D01*
X185716820Y-98477737D01*
X185593981Y-98395659D01*
X185562747Y-98382721D01*
X186179421Y-97766048D01*
X186077306Y-97691857D01*
X185852907Y-97577519D01*
X185613392Y-97499697D01*
X185364651Y-97460300D01*
X185112795Y-97460300D01*
X184864053Y-97499697D01*
X184624538Y-97577519D01*
X184400136Y-97691859D01*
X184298024Y-97766047D01*
X184298023Y-97766048D01*
X184914697Y-98382721D01*
X184883465Y-98395659D01*
X184760626Y-98477737D01*
X184656160Y-98582203D01*
X184574082Y-98705042D01*
X184561144Y-98736274D01*
X183944471Y-98119600D01*
X183944470Y-98119601D01*
X183870282Y-98221713D01*
X183755942Y-98446115D01*
X183678120Y-98685630D01*
X183638723Y-98934371D01*
X183638723Y-99186228D01*
X183678120Y-99434969D01*
X183755942Y-99674484D01*
X183870280Y-99898883D01*
X183944471Y-100000997D01*
X183944471Y-100000998D01*
X184561144Y-99384324D01*
X184574082Y-99415558D01*
X184656160Y-99538397D01*
X184760626Y-99642863D01*
X184883465Y-99724941D01*
X184914697Y-99737877D01*
X184298023Y-100354550D01*
X184300321Y-100383749D01*
X184285956Y-100452127D01*
X184236904Y-100501883D01*
X184168739Y-100517221D01*
X184157306Y-100515950D01*
X184055334Y-100499800D01*
X183882112Y-100499800D01*
X183842451Y-100506081D01*
X183711025Y-100526897D01*
X183546275Y-100580428D01*
X183391934Y-100659068D01*
X183335838Y-100699825D01*
X183251795Y-100760886D01*
X183251793Y-100760888D01*
X183251792Y-100760888D01*
X183129311Y-100883369D01*
X183129311Y-100883370D01*
X183129309Y-100883372D01*
X183096366Y-100928714D01*
X183027491Y-101023511D01*
X182948851Y-101177852D01*
X182895320Y-101342602D01*
X182874623Y-101473278D01*
X182868223Y-101513689D01*
X176161723Y-101513689D01*
X176134625Y-101342599D01*
X176081096Y-101177855D01*
X176002455Y-101023512D01*
X175900637Y-100883372D01*
X175778151Y-100760886D01*
X175638011Y-100659068D01*
X175541043Y-100609661D01*
X175483670Y-100580428D01*
X175483669Y-100580427D01*
X175483668Y-100580427D01*
X175318924Y-100526898D01*
X175318922Y-100526897D01*
X175318921Y-100526897D01*
X175187494Y-100506081D01*
X175147834Y-100499800D01*
X174974612Y-100499800D01*
X174934951Y-100506081D01*
X174803525Y-100526897D01*
X174638775Y-100580428D01*
X174484434Y-100659068D01*
X174428338Y-100699825D01*
X174344295Y-100760886D01*
X174344293Y-100760888D01*
X174344292Y-100760888D01*
X174221811Y-100883369D01*
X174221811Y-100883370D01*
X174221809Y-100883372D01*
X174188866Y-100928714D01*
X174119991Y-101023511D01*
X174041351Y-101177852D01*
X173987820Y-101342602D01*
X173967123Y-101473278D01*
X173960723Y-101513689D01*
X172231723Y-101513689D01*
X172231723Y-101452794D01*
X172193216Y-101160307D01*
X172116862Y-100875348D01*
X172003966Y-100602793D01*
X171953827Y-100515950D01*
X171856461Y-100347306D01*
X171676870Y-100113259D01*
X171676864Y-100113252D01*
X171468270Y-99904658D01*
X171468263Y-99904652D01*
X171234216Y-99725061D01*
X170978733Y-99577558D01*
X170978723Y-99577554D01*
X170706184Y-99464664D01*
X170706177Y-99464662D01*
X170706175Y-99464661D01*
X170421216Y-99388307D01*
X170372336Y-99381871D01*
X170128736Y-99349800D01*
X170128729Y-99349800D01*
X169833717Y-99349800D01*
X169833709Y-99349800D01*
X169555308Y-99386453D01*
X169541230Y-99388307D01*
X169367084Y-99434969D01*
X169256271Y-99464661D01*
X169256261Y-99464664D01*
X168983722Y-99577554D01*
X168983712Y-99577558D01*
X168728229Y-99725061D01*
X168494182Y-99904652D01*
X168494175Y-99904658D01*
X168285581Y-100113252D01*
X168285575Y-100113259D01*
X168105984Y-100347306D01*
X167958481Y-100602789D01*
X167958477Y-100602799D01*
X167845587Y-100875338D01*
X167845584Y-100875348D01*
X167776515Y-101133121D01*
X167769231Y-101160304D01*
X167769229Y-101160315D01*
X167730723Y-101452786D01*
X165992077Y-101452786D01*
X165974625Y-101342599D01*
X165921096Y-101177855D01*
X165842455Y-101023512D01*
X165740637Y-100883372D01*
X165688105Y-100830840D01*
X165654620Y-100769517D01*
X165659604Y-100699825D01*
X165701476Y-100643892D01*
X165766940Y-100619475D01*
X165795184Y-100620686D01*
X166045295Y-100660300D01*
X166297151Y-100660300D01*
X166545892Y-100620902D01*
X166785407Y-100543080D01*
X167009798Y-100428746D01*
X167009804Y-100428742D01*
X167111920Y-100354550D01*
X167111921Y-100354550D01*
X166495248Y-99737878D01*
X166526481Y-99724941D01*
X166649320Y-99642863D01*
X166753786Y-99538397D01*
X166835864Y-99415558D01*
X166848801Y-99384325D01*
X167465473Y-100000998D01*
X167465473Y-100000997D01*
X167539665Y-99898881D01*
X167539669Y-99898875D01*
X167654003Y-99674484D01*
X167731825Y-99434969D01*
X167771223Y-99186228D01*
X167771223Y-98934371D01*
X167731825Y-98685630D01*
X167654003Y-98446115D01*
X167539665Y-98221716D01*
X167465473Y-98119601D01*
X167465473Y-98119600D01*
X166848800Y-98736273D01*
X166835864Y-98705042D01*
X166753786Y-98582203D01*
X166649320Y-98477737D01*
X166526481Y-98395659D01*
X166495247Y-98382721D01*
X167111921Y-97766048D01*
X167009806Y-97691857D01*
X166785407Y-97577519D01*
X166545892Y-97499697D01*
X166297151Y-97460300D01*
X166045295Y-97460300D01*
X165796553Y-97499697D01*
X165557038Y-97577519D01*
X165332636Y-97691859D01*
X165230524Y-97766047D01*
X165230523Y-97766048D01*
X165847197Y-98382721D01*
X165815965Y-98395659D01*
X165693126Y-98477737D01*
X165588660Y-98582203D01*
X165506582Y-98705042D01*
X165493644Y-98736274D01*
X164876971Y-98119600D01*
X164876970Y-98119601D01*
X164802782Y-98221713D01*
X164688442Y-98446115D01*
X164610620Y-98685630D01*
X164571223Y-98934371D01*
X164571223Y-99186228D01*
X164610620Y-99434969D01*
X164688442Y-99674484D01*
X164802780Y-99898883D01*
X164876971Y-100000997D01*
X164876971Y-100000998D01*
X165493644Y-99384324D01*
X165506582Y-99415558D01*
X165588660Y-99538397D01*
X165693126Y-99642863D01*
X165815965Y-99724941D01*
X165847197Y-99737877D01*
X165230523Y-100354550D01*
X165232821Y-100383749D01*
X165218456Y-100452127D01*
X165169404Y-100501883D01*
X165101239Y-100517221D01*
X165089806Y-100515950D01*
X164987834Y-100499800D01*
X164814612Y-100499800D01*
X164774951Y-100506081D01*
X164643525Y-100526897D01*
X164478775Y-100580428D01*
X164324434Y-100659068D01*
X164268338Y-100699825D01*
X164184295Y-100760886D01*
X164184293Y-100760888D01*
X164184292Y-100760888D01*
X164061811Y-100883369D01*
X164061811Y-100883370D01*
X164061809Y-100883372D01*
X164028866Y-100928714D01*
X163959991Y-101023511D01*
X163881351Y-101177852D01*
X163827820Y-101342602D01*
X163807123Y-101473278D01*
X163800723Y-101513689D01*
X159406907Y-101513689D01*
X159520504Y-101400092D01*
X159520506Y-101400088D01*
X159520509Y-101400086D01*
X159645448Y-101228120D01*
X159645447Y-101228120D01*
X159645451Y-101228116D01*
X159741957Y-101038712D01*
X159807646Y-100836543D01*
X159840900Y-100626587D01*
X159840900Y-100414013D01*
X159807646Y-100204057D01*
X159741957Y-100001888D01*
X159645451Y-99812484D01*
X159645449Y-99812481D01*
X159645448Y-99812479D01*
X159520509Y-99640513D01*
X159370186Y-99490190D01*
X159198220Y-99365251D01*
X159197515Y-99364891D01*
X159189454Y-99360785D01*
X159138659Y-99312812D01*
X159121863Y-99244992D01*
X159144399Y-99178856D01*
X159189454Y-99139815D01*
X159198216Y-99135351D01*
X159277441Y-99077791D01*
X159370186Y-99010409D01*
X159370188Y-99010406D01*
X159370192Y-99010404D01*
X159520504Y-98860092D01*
X159520511Y-98860083D01*
X159523025Y-98856623D01*
X159523027Y-98856620D01*
X159577154Y-98782119D01*
X159645451Y-98688116D01*
X159741957Y-98498712D01*
X159807646Y-98296543D01*
X159840900Y-98086587D01*
X159840900Y-97874013D01*
X159807646Y-97664057D01*
X159741957Y-97461888D01*
X159645451Y-97272484D01*
X159645449Y-97272481D01*
X159645448Y-97272479D01*
X159520509Y-97100513D01*
X159370186Y-96950190D01*
X159198220Y-96825251D01*
X159197515Y-96824891D01*
X159189454Y-96820785D01*
X159138659Y-96772812D01*
X159121863Y-96704992D01*
X159144399Y-96638856D01*
X159189454Y-96599815D01*
X159198216Y-96595351D01*
X159277441Y-96537791D01*
X159370186Y-96470409D01*
X159370188Y-96470406D01*
X159370192Y-96470404D01*
X159520504Y-96320092D01*
X159520506Y-96320088D01*
X159520509Y-96320086D01*
X159645448Y-96148120D01*
X159645447Y-96148120D01*
X159645451Y-96148116D01*
X159741957Y-95958712D01*
X159807646Y-95756543D01*
X159840900Y-95546587D01*
X159840900Y-95334013D01*
X159811982Y-95151432D01*
X159806884Y-95119245D01*
X159808533Y-95118983D01*
X159811641Y-95056469D01*
X159841054Y-95009589D01*
X160645663Y-94204982D01*
X160706986Y-94171497D01*
X160733344Y-94168663D01*
X169198278Y-94168663D01*
X169265317Y-94188348D01*
X169285959Y-94204982D01*
X170971722Y-95890745D01*
X171005207Y-95952068D01*
X171001972Y-96016744D01*
X170960133Y-96145510D01*
X170960133Y-96145513D01*
X170926097Y-96360409D01*
X170920723Y-96394338D01*
X170920723Y-96646262D01*
X170939183Y-96762810D01*
X170960133Y-96895085D01*
X171037983Y-97134683D01*
X171108197Y-97272484D01*
X171148655Y-97351888D01*
X171152355Y-97359148D01*
X171300424Y-97562949D01*
X171300428Y-97562954D01*
X171478568Y-97741094D01*
X171478573Y-97741098D01*
X171604662Y-97832706D01*
X171682378Y-97889170D01*
X171825407Y-97962047D01*
X171906839Y-98003539D01*
X171906841Y-98003539D01*
X171906844Y-98003541D01*
X172146438Y-98081390D01*
X172395261Y-98120800D01*
X172395262Y-98120800D01*
X172647184Y-98120800D01*
X172647185Y-98120800D01*
X172896008Y-98081390D01*
X173135602Y-98003541D01*
X173360068Y-97889170D01*
X173563879Y-97741093D01*
X173742016Y-97562956D01*
X173890093Y-97359145D01*
X174004464Y-97134679D01*
X174082313Y-96895085D01*
X174121723Y-96646262D01*
X174121723Y-96394338D01*
X174082313Y-96145515D01*
X174004464Y-95905921D01*
X174004462Y-95905918D01*
X174004462Y-95905916D01*
X173928350Y-95756539D01*
X173890093Y-95681455D01*
X173792106Y-95546587D01*
X173742021Y-95477650D01*
X173742017Y-95477645D01*
X173563877Y-95299505D01*
X173563872Y-95299501D01*
X173360071Y-95151432D01*
X173360070Y-95151431D01*
X173360068Y-95151430D01*
X173271664Y-95106386D01*
X173135606Y-95037060D01*
X172896008Y-94959210D01*
X172810508Y-94945668D01*
X172647185Y-94919800D01*
X172395261Y-94919800D01*
X172312320Y-94932936D01*
X172146436Y-94959210D01*
X172146433Y-94959210D01*
X172017667Y-95001049D01*
X171947825Y-95003044D01*
X171891668Y-94970799D01*
X169933760Y-93012890D01*
X169933759Y-93012889D01*
X169929078Y-93009761D01*
X169827213Y-92941698D01*
X169827208Y-92941696D01*
X169708830Y-92892662D01*
X169708824Y-92892660D01*
X169583157Y-92867663D01*
X169583155Y-92867663D01*
X160348468Y-92867663D01*
X160348466Y-92867663D01*
X160222798Y-92892660D01*
X160222792Y-92892662D01*
X160104412Y-92941696D01*
X160104405Y-92941700D01*
X160033790Y-92988884D01*
X159967113Y-93009761D01*
X159899733Y-92991276D01*
X159853043Y-92939297D01*
X159840900Y-92885781D01*
X159840900Y-92794008D01*
X159831088Y-92732062D01*
X159840042Y-92662768D01*
X159885038Y-92609316D01*
X159951789Y-92588676D01*
X159953561Y-92588663D01*
X186685778Y-92588663D01*
X186752817Y-92608348D01*
X186773459Y-92624982D01*
X190039222Y-95890745D01*
X190072707Y-95952068D01*
X190069472Y-96016744D01*
X190027633Y-96145510D01*
X190027633Y-96145513D01*
X189993597Y-96360409D01*
X189988223Y-96394338D01*
X189988223Y-96646262D01*
X190006683Y-96762810D01*
X190027633Y-96895085D01*
X190105483Y-97134683D01*
X190175697Y-97272484D01*
X190216155Y-97351888D01*
X190219855Y-97359148D01*
X190367924Y-97562949D01*
X190367928Y-97562954D01*
X190546068Y-97741094D01*
X190546073Y-97741098D01*
X190672162Y-97832706D01*
X190749878Y-97889170D01*
X190892907Y-97962047D01*
X190974339Y-98003539D01*
X190974341Y-98003539D01*
X190974344Y-98003541D01*
X191213938Y-98081390D01*
X191462761Y-98120800D01*
X191462762Y-98120800D01*
X191714684Y-98120800D01*
X191714685Y-98120800D01*
X191963508Y-98081390D01*
X192203102Y-98003541D01*
X192427568Y-97889170D01*
X192631379Y-97741093D01*
X192809516Y-97562956D01*
X192957593Y-97359145D01*
X193071964Y-97134679D01*
X193149813Y-96895085D01*
X193189223Y-96646262D01*
X193189223Y-96394338D01*
X193149813Y-96145515D01*
X193071964Y-95905921D01*
X193071962Y-95905918D01*
X193071962Y-95905916D01*
X192995850Y-95756539D01*
X192957593Y-95681455D01*
X192859606Y-95546587D01*
X192809521Y-95477650D01*
X192809517Y-95477645D01*
X192631377Y-95299505D01*
X192631372Y-95299501D01*
X192427571Y-95151432D01*
X192427570Y-95151431D01*
X192427568Y-95151430D01*
X192339164Y-95106386D01*
X192203106Y-95037060D01*
X191963508Y-94959210D01*
X191878008Y-94945668D01*
X191714685Y-94919800D01*
X191462761Y-94919800D01*
X191379820Y-94932936D01*
X191213936Y-94959210D01*
X191213933Y-94959210D01*
X191085167Y-95001049D01*
X191015325Y-95003044D01*
X190959168Y-94970799D01*
X187421260Y-91432890D01*
X187421259Y-91432889D01*
X187421255Y-91432886D01*
X187314713Y-91361698D01*
X187196330Y-91312662D01*
X187196324Y-91312660D01*
X187070657Y-91287663D01*
X187070655Y-91287663D01*
X159729305Y-91287663D01*
X159662266Y-91267978D01*
X159616511Y-91215174D01*
X159606567Y-91146016D01*
X159628987Y-91090778D01*
X159645448Y-91068120D01*
X159645447Y-91068120D01*
X159645451Y-91068116D01*
X159741957Y-90878712D01*
X159807646Y-90676543D01*
X159840900Y-90466587D01*
X159840900Y-90254013D01*
X159807646Y-90044057D01*
X159741957Y-89841888D01*
X159645451Y-89652484D01*
X159645449Y-89652481D01*
X159645448Y-89652479D01*
X159520509Y-89480513D01*
X159370186Y-89330190D01*
X159198217Y-89205249D01*
X159188904Y-89200504D01*
X159138107Y-89152530D01*
X159121312Y-89084709D01*
X159143849Y-89018574D01*
X159188907Y-88979532D01*
X159197958Y-88974920D01*
X159369859Y-88850027D01*
X159369864Y-88850023D01*
X159520123Y-88699764D01*
X159520127Y-88699759D01*
X159645020Y-88527857D01*
X159741495Y-88338517D01*
X159807157Y-88136429D01*
X159807157Y-88136426D01*
X159817631Y-88070300D01*
X158923412Y-88070300D01*
X158956325Y-88013293D01*
X158990400Y-87886126D01*
X158990400Y-87754474D01*
X158956325Y-87627307D01*
X158923412Y-87570300D01*
X159817631Y-87570300D01*
X159807157Y-87504173D01*
X159807157Y-87504170D01*
X159741495Y-87302082D01*
X159645020Y-87112742D01*
X159520127Y-86940840D01*
X159520123Y-86940835D01*
X159406453Y-86827165D01*
X159372968Y-86765842D01*
X159377952Y-86696150D01*
X159419824Y-86640217D01*
X159450800Y-86623302D01*
X159582731Y-86574096D01*
X159697946Y-86487846D01*
X159784196Y-86372631D01*
X159834491Y-86237783D01*
X159840900Y-86178173D01*
X159840900Y-85829011D01*
X187198223Y-85829011D01*
X187198223Y-86071588D01*
X187229884Y-86312085D01*
X187292670Y-86546404D01*
X187351619Y-86688718D01*
X187385499Y-86770512D01*
X187506787Y-86980589D01*
X187506789Y-86980592D01*
X187506790Y-86980593D01*
X187654456Y-87173036D01*
X187654462Y-87173043D01*
X187825979Y-87344560D01*
X187825986Y-87344566D01*
X187853659Y-87365800D01*
X188018434Y-87492236D01*
X188228511Y-87613524D01*
X188452623Y-87706354D01*
X188686934Y-87769138D01*
X188867309Y-87792884D01*
X188927434Y-87800800D01*
X188927435Y-87800800D01*
X189170012Y-87800800D01*
X189218111Y-87794467D01*
X189410512Y-87769138D01*
X189644823Y-87706354D01*
X189868935Y-87613524D01*
X190079012Y-87492236D01*
X190271461Y-87344565D01*
X190442988Y-87173038D01*
X190590659Y-86980589D01*
X190711947Y-86770512D01*
X190804777Y-86546400D01*
X190867561Y-86312089D01*
X190899223Y-86071588D01*
X190899223Y-85829012D01*
X190867561Y-85588511D01*
X190804777Y-85354200D01*
X190711947Y-85130088D01*
X190590659Y-84920011D01*
X190518383Y-84825819D01*
X190442989Y-84727563D01*
X190442983Y-84727556D01*
X190271466Y-84556039D01*
X190271459Y-84556033D01*
X190079016Y-84408367D01*
X190079015Y-84408366D01*
X190079012Y-84408364D01*
X189903997Y-84307319D01*
X189868937Y-84287077D01*
X189868928Y-84287073D01*
X189644827Y-84194247D01*
X189435759Y-84138227D01*
X189410512Y-84131462D01*
X189410511Y-84131461D01*
X189410508Y-84131461D01*
X189170012Y-84099800D01*
X189170011Y-84099800D01*
X188927435Y-84099800D01*
X188927434Y-84099800D01*
X188686937Y-84131461D01*
X188452618Y-84194247D01*
X188228517Y-84287073D01*
X188228508Y-84287077D01*
X188018429Y-84408367D01*
X187825986Y-84556033D01*
X187825979Y-84556039D01*
X187654462Y-84727556D01*
X187654456Y-84727563D01*
X187506790Y-84920006D01*
X187385500Y-85130085D01*
X187385496Y-85130094D01*
X187292670Y-85354195D01*
X187229884Y-85588514D01*
X187198223Y-85829011D01*
X159840900Y-85829011D01*
X159840899Y-85207538D01*
X159840899Y-84382429D01*
X159840898Y-84382423D01*
X159840112Y-84375115D01*
X159834491Y-84322817D01*
X159828711Y-84307321D01*
X159784197Y-84187971D01*
X159784193Y-84187964D01*
X159697947Y-84072755D01*
X159697944Y-84072752D01*
X159582735Y-83986506D01*
X159582728Y-83986502D01*
X159447882Y-83936208D01*
X159447883Y-83936208D01*
X159388283Y-83929801D01*
X159388281Y-83929800D01*
X159388273Y-83929800D01*
X159388264Y-83929800D01*
X157592529Y-83929800D01*
X157592523Y-83929801D01*
X157532916Y-83936208D01*
X157398071Y-83986502D01*
X157398064Y-83986506D01*
X157282855Y-84072752D01*
X157282852Y-84072755D01*
X157196606Y-84187964D01*
X157196602Y-84187971D01*
X157149548Y-84314133D01*
X157107677Y-84370067D01*
X157042213Y-84394484D01*
X157033366Y-84394800D01*
X155541707Y-84394800D01*
X155474668Y-84375115D01*
X155454026Y-84358481D01*
X155402866Y-84307321D01*
X155402864Y-84307319D01*
X155242094Y-84190513D01*
X155237091Y-84187964D01*
X155065032Y-84100294D01*
X155065029Y-84100293D01*
X154876037Y-84038887D01*
X154777898Y-84023343D01*
X154679761Y-84007800D01*
X154481039Y-84007800D01*
X154415614Y-84018162D01*
X154284762Y-84038887D01*
X154095770Y-84100293D01*
X154095767Y-84100294D01*
X153918705Y-84190513D01*
X153757933Y-84307321D01*
X153617421Y-84447833D01*
X153500613Y-84608605D01*
X153410394Y-84785667D01*
X153410393Y-84785670D01*
X153348987Y-84974662D01*
X153348987Y-84974664D01*
X153317900Y-85170939D01*
X140602900Y-85170939D01*
X140571813Y-84974664D01*
X140510405Y-84785668D01*
X140510405Y-84785667D01*
X140435766Y-84639182D01*
X140420187Y-84608606D01*
X140303381Y-84447836D01*
X140162864Y-84307319D01*
X140002094Y-84190513D01*
X139997091Y-84187964D01*
X139825032Y-84100294D01*
X139825029Y-84100293D01*
X139636037Y-84038887D01*
X139537898Y-84023343D01*
X139439761Y-84007800D01*
X139241039Y-84007800D01*
X139175614Y-84018162D01*
X139044762Y-84038887D01*
X138855770Y-84100293D01*
X138855767Y-84100294D01*
X138678702Y-84190515D01*
X138567762Y-84271118D01*
X138501956Y-84294598D01*
X138494877Y-84294800D01*
X136876164Y-84294800D01*
X136809125Y-84275115D01*
X136763370Y-84222311D01*
X136759982Y-84214133D01*
X136709197Y-84077971D01*
X136709193Y-84077964D01*
X136622947Y-83962755D01*
X136622944Y-83962752D01*
X136507735Y-83876506D01*
X136507728Y-83876502D01*
X136372882Y-83826208D01*
X136372883Y-83826208D01*
X136313283Y-83819801D01*
X136313281Y-83819800D01*
X136313273Y-83819800D01*
X136313265Y-83819800D01*
X135036208Y-83819800D01*
X134969169Y-83800115D01*
X134948527Y-83783481D01*
X133230074Y-82065027D01*
X133230073Y-82065026D01*
X133230069Y-82065023D01*
X133123527Y-81993835D01*
X133005144Y-81944799D01*
X133005138Y-81944797D01*
X132879471Y-81919800D01*
X132879469Y-81919800D01*
X126854131Y-81919800D01*
X126854129Y-81919800D01*
X126728461Y-81944797D01*
X126728455Y-81944799D01*
X126610070Y-81993835D01*
X126503531Y-82065022D01*
X126503524Y-82065028D01*
X122209890Y-86358662D01*
X122148567Y-86392147D01*
X122083891Y-86388912D01*
X121955124Y-86347073D01*
X121734218Y-86312085D01*
X121706299Y-86307663D01*
X121454375Y-86307663D01*
X121426431Y-86312089D01*
X121205551Y-86347073D01*
X120965953Y-86424923D01*
X120741488Y-86539295D01*
X120537687Y-86687364D01*
X120537682Y-86687368D01*
X120359542Y-86865508D01*
X120359538Y-86865513D01*
X120211469Y-87069314D01*
X120097097Y-87293779D01*
X120019247Y-87533377D01*
X120018615Y-87537370D01*
X119979837Y-87782201D01*
X103565835Y-87782201D01*
X103824387Y-87134925D01*
X103826842Y-87129207D01*
X104130936Y-86467372D01*
X104133696Y-86461745D01*
X104250684Y-86237783D01*
X104470928Y-85816146D01*
X104473958Y-85810686D01*
X104843467Y-85182978D01*
X104846780Y-85177667D01*
X105247584Y-84569518D01*
X105251161Y-84564377D01*
X105682261Y-83977299D01*
X105686083Y-83972361D01*
X106146369Y-83407863D01*
X106150456Y-83403103D01*
X106150459Y-83403100D01*
X106638756Y-82862629D01*
X106643046Y-82858117D01*
X107158078Y-82343085D01*
X107162590Y-82338795D01*
X107703070Y-81850489D01*
X107707831Y-81846403D01*
X108272322Y-81386122D01*
X108277261Y-81382299D01*
X108864338Y-80951200D01*
X108869463Y-80947632D01*
X109477646Y-80546807D01*
X109482939Y-80543507D01*
X110110631Y-80174007D01*
X110116107Y-80170967D01*
X110761717Y-79833728D01*
X110767332Y-79830975D01*
X111429167Y-79526882D01*
X111434886Y-79524427D01*
X112111328Y-79254223D01*
X112117165Y-79252062D01*
X112806395Y-79016477D01*
X112812346Y-79014609D01*
X113512651Y-78814227D01*
X113518682Y-78812666D01*
X114228210Y-78648018D01*
X114234294Y-78646768D01*
X114951267Y-78518265D01*
X114957456Y-78517317D01*
X115679960Y-78425300D01*
X115686201Y-78424665D01*
X116412467Y-78369359D01*
X116418716Y-78369042D01*
X117148438Y-78350551D01*
X117151568Y-78350512D01*
X117215864Y-78350512D01*
X187084082Y-78350512D01*
X187148412Y-78350512D01*
X187151552Y-78350551D01*
G37*
%TD.AperFunction*%
%TD*%
M02*
