M48
; DRILL file {KiCad 9.0.3} date 2025-07-31T20:43:04+0700
; FORMAT={-:-/ absolute / metric / decimal}
; #@! TF.CreationDate,2025-07-31T20:43:04+07:00
; #@! TF.GenerationSoftware,Kicad,Pcbnew,9.0.3
; #@! TF.FileFunction,MixedPlating,1,2
FMAT,2
METRIC
; #@! TA.AperFunction,Plated,PTH,ComponentDrill
T1C0.700
; #@! TA.AperFunction,Plated,PTH,ComponentDrill
T2C0.889
; #@! TA.AperFunction,Plated,PTH,ComponentDrill
T3C1.000
; #@! TA.AperFunction,Plated,PTH,ComponentDrill
T4C1.210
; #@! TA.AperFunction,Plated,PTH,ComponentDrill
T5C1.500
; #@! TA.AperFunction,NonPlated,NPTH,ComponentDrill
T6C1.700
; #@! TA.AperFunction,NonPlated,NPTH,ComponentDrill
T7C3.200
; #@! TA.AperFunction,NonPlated,NPTH,ComponentDrill
T8C4.000
%
G90
G05
T1
X129.73Y-84.92
X129.73Y-90.0
X129.745Y-95.32
X129.745Y-100.4
X129.745Y-104.27
X129.745Y-109.35
X129.745Y-114.66
X129.745Y-119.74
X137.69Y-112.88
T2
X139.34Y-85.27
X139.34Y-87.81
X139.34Y-90.35
X139.34Y-92.89
X139.34Y-95.43
X139.34Y-97.97
X139.34Y-100.51
X154.58Y-85.27
X154.58Y-87.81
X154.58Y-90.35
X154.58Y-92.89
X154.58Y-95.43
X154.58Y-97.97
X154.58Y-100.51
T3
X135.415Y-85.17
X135.415Y-87.71
X135.415Y-90.25
X135.415Y-92.79
X135.415Y-95.33
X135.415Y-97.87
X135.415Y-100.41
X158.49Y-85.28
X158.49Y-87.82
X158.49Y-90.36
X158.49Y-92.9
X158.49Y-95.44
X158.49Y-97.98
X158.49Y-100.52
T4
X141.84Y-108.77
X141.85Y-115.65
X144.38Y-108.77
X144.39Y-115.65
X149.143Y-115.65
X149.19Y-108.77
X151.683Y-115.65
X151.73Y-108.77
T5
X115.23Y-90.448
X115.23Y-109.448
X121.58Y-87.908
X121.58Y-106.908
X166.171Y-99.06
X172.521Y-96.52
X185.239Y-99.06
X191.589Y-96.52
T6
X113.96Y-92.988
X113.96Y-111.988
X124.12Y-92.988
X124.12Y-111.988
X164.901Y-101.6
X175.061Y-101.6
X183.969Y-101.6
X194.129Y-101.6
T7
X105.98Y-102.6
X188.98Y-119.7
X189.049Y-85.95
T8
X119.04Y-92.988
X119.04Y-111.988
X169.981Y-101.6
X189.049Y-101.6
M30
