%TF.GenerationSoftware,KiCad,Pcbnew,9.0.3*%
%TF.CreationDate,2025-07-31T20:43:01+07:00*%
%TF.ProjectId,DIY Gamepad,44495920-4761-46d6-9570-61642e6b6963,rev?*%
%TF.SameCoordinates,Original*%
%TF.FileFunction,Legend,Top*%
%TF.FilePolarity,Positive*%
%FSLAX46Y46*%
G04 Gerber Fmt 4.6, Leading zero omitted, Abs format (unit mm)*
G04 Created by KiCad (PCBNEW 9.0.3) date 2025-07-31 20:43:01*
%MOMM*%
%LPD*%
G01*
G04 APERTURE LIST*
%ADD10C,0.101600*%
%ADD11C,0.120000*%
%ADD12C,0.127000*%
%ADD13C,0.200000*%
%ADD14C,0.100000*%
%ADD15C,0.504000*%
G04 APERTURE END LIST*
D10*
X146476590Y-92455111D02*
X146476590Y-93102730D01*
X146476590Y-93102730D02*
X146506828Y-93178920D01*
X146506828Y-93178920D02*
X146537066Y-93217016D01*
X146537066Y-93217016D02*
X146597542Y-93255111D01*
X146597542Y-93255111D02*
X146718495Y-93255111D01*
X146718495Y-93255111D02*
X146778971Y-93217016D01*
X146778971Y-93217016D02*
X146809209Y-93178920D01*
X146809209Y-93178920D02*
X146839447Y-93102730D01*
X146839447Y-93102730D02*
X146839447Y-92455111D01*
X147474447Y-93255111D02*
X147111590Y-93255111D01*
X147293018Y-93255111D02*
X147293018Y-92455111D01*
X147293018Y-92455111D02*
X147232542Y-92569396D01*
X147232542Y-92569396D02*
X147172066Y-92645587D01*
X147172066Y-92645587D02*
X147111590Y-92683682D01*
D11*
%TO.C,R2*%
X128824973Y-99780300D02*
X128824973Y-95940300D01*
X130664973Y-99780300D02*
X130664973Y-95940300D01*
%TO.C,R1*%
X128809973Y-89380300D02*
X128809973Y-85540300D01*
X130649973Y-89380300D02*
X130649973Y-85540300D01*
%TO.C,SW4*%
X182063723Y-94615300D02*
X196033723Y-94615300D01*
X182063723Y-108585300D02*
X182063723Y-94615300D01*
X196033723Y-94615300D02*
X196033723Y-108585300D01*
X196033723Y-108585300D02*
X182063723Y-108585300D01*
%TO.C,R3*%
X128824973Y-108730300D02*
X128824973Y-104890300D01*
X130664973Y-108730300D02*
X130664973Y-104890300D01*
D12*
%TO.C,D4*%
X147912900Y-114084300D02*
X147912900Y-117216300D01*
X147912900Y-114084300D02*
G75*
G02*
X147912900Y-117216300I2506124J-1566000D01*
G01*
D13*
X147312900Y-115650300D02*
G75*
G02*
X147112900Y-115650300I-100000J0D01*
G01*
X147112900Y-115650300D02*
G75*
G02*
X147312900Y-115650300I100000J0D01*
G01*
D11*
%TO.C,R4*%
X128824973Y-119120300D02*
X128824973Y-115280300D01*
X130664973Y-119120300D02*
X130664973Y-115280300D01*
D12*
%TO.C,U1*%
X138070400Y-101399300D02*
X138070400Y-84254300D01*
X139975400Y-103304300D02*
X153945400Y-103304300D01*
X142465400Y-82349300D02*
X142469128Y-81439028D01*
X142969128Y-80939300D02*
X150964400Y-80939300D01*
X151464400Y-81439300D02*
X151464400Y-82349300D01*
D14*
X153945400Y-82349300D02*
X139975400Y-82349300D01*
D12*
X153945400Y-82349300D02*
X139975400Y-82349300D01*
X155850400Y-101399300D02*
X155850400Y-84254300D01*
X138070400Y-84254300D02*
G75*
G02*
X139975400Y-82349300I1905001J-1D01*
G01*
X139975400Y-103304300D02*
G75*
G02*
X138070400Y-101399300I1J1905001D01*
G01*
X142469128Y-81439028D02*
G75*
G02*
X142969128Y-80939301I500018J-291D01*
G01*
X150964400Y-80939300D02*
G75*
G02*
X151464400Y-81439300I0J-500000D01*
G01*
X153945400Y-82349300D02*
G75*
G02*
X155850400Y-84254300I0J-1905000D01*
G01*
X155850400Y-101399300D02*
G75*
G02*
X153945400Y-103304300I-1905000J0D01*
G01*
D15*
X138262400Y-82590300D02*
G75*
G02*
X137758400Y-82590300I-252000J0D01*
G01*
X137758400Y-82590300D02*
G75*
G02*
X138262400Y-82590300I252000J0D01*
G01*
X139405400Y-83470300D02*
G75*
G02*
X138901400Y-83470300I-252000J0D01*
G01*
X138901400Y-83470300D02*
G75*
G02*
X139405400Y-83470300I252000J0D01*
G01*
D12*
%TO.C,D1*%
X145609973Y-110336300D02*
X145609973Y-107204300D01*
X145609973Y-110336300D02*
G75*
G02*
X145609973Y-107204300I-2506124J1566000D01*
G01*
D13*
X146409973Y-108770300D02*
G75*
G02*
X146209973Y-108770300I-100000J0D01*
G01*
X146209973Y-108770300D02*
G75*
G02*
X146409973Y-108770300I100000J0D01*
G01*
D12*
%TO.C,D2*%
X147959973Y-107204300D02*
X147959973Y-110336300D01*
X147959973Y-107204300D02*
G75*
G02*
X147959973Y-110336300I2506124J-1566000D01*
G01*
D13*
X147359973Y-108770300D02*
G75*
G02*
X147159973Y-108770300I-100000J0D01*
G01*
X147159973Y-108770300D02*
G75*
G02*
X147359973Y-108770300I100000J0D01*
G01*
D11*
%TO.C,SW2*%
X162996223Y-94615300D02*
X176966223Y-94615300D01*
X162996223Y-108585300D02*
X162996223Y-94615300D01*
X176966223Y-94615300D02*
X176966223Y-108585300D01*
X176966223Y-108585300D02*
X162996223Y-108585300D01*
%TO.C,J3*%
X138639973Y-112880300D02*
G75*
G02*
X136739973Y-112880300I-950000J0D01*
G01*
X136739973Y-112880300D02*
G75*
G02*
X138639973Y-112880300I950000J0D01*
G01*
%TO.C,J1*%
X134085400Y-83840300D02*
X135415400Y-83840300D01*
X134085400Y-85170300D02*
X134085400Y-83840300D01*
X134085400Y-86440300D02*
X134085400Y-101740300D01*
X134085400Y-86440300D02*
X136745400Y-86440300D01*
X134085400Y-101740300D02*
X136745400Y-101740300D01*
X136745400Y-86440300D02*
X136745400Y-101740300D01*
%TO.C,J2*%
X157160400Y-83950300D02*
X158490400Y-83950300D01*
X157160400Y-85280300D02*
X157160400Y-83950300D01*
X157160400Y-86550300D02*
X157160400Y-101850300D01*
X157160400Y-86550300D02*
X159820400Y-86550300D01*
X157160400Y-101850300D02*
X159820400Y-101850300D01*
X159820400Y-86550300D02*
X159820400Y-101850300D01*
%TO.C,SW1*%
X112055337Y-86003163D02*
X126025337Y-86003163D01*
X112055337Y-99973163D02*
X112055337Y-86003163D01*
X126025337Y-86003163D02*
X126025337Y-99973163D01*
X126025337Y-99973163D02*
X112055337Y-99973163D01*
D12*
%TO.C,D3*%
X145619973Y-117216300D02*
X145619973Y-114084300D01*
X145619973Y-117216300D02*
G75*
G02*
X145619973Y-114084300I-2506124J1566000D01*
G01*
D13*
X146419973Y-115650300D02*
G75*
G02*
X146219973Y-115650300I-100000J0D01*
G01*
X146219973Y-115650300D02*
G75*
G02*
X146419973Y-115650300I100000J0D01*
G01*
D11*
%TO.C,SW3*%
X112055337Y-105003163D02*
X126025337Y-105003163D01*
X112055337Y-118973163D02*
X112055337Y-105003163D01*
X126025337Y-105003163D02*
X126025337Y-118973163D01*
X126025337Y-118973163D02*
X112055337Y-118973163D01*
%TD*%
M02*
