%TF.GenerationSoftware,KiCad,Pcbnew,9.0.3*%
%TF.CreationDate,2025-07-31T20:43:01+07:00*%
%TF.ProjectId,DIY Gamepad,44495920-4761-46d6-9570-61642e6b6963,rev?*%
%TF.SameCoordinates,Original*%
%TF.FileFunction,Soldermask,Top*%
%TF.FilePolarity,Negative*%
%FSLAX46Y46*%
G04 Gerber Fmt 4.6, Leading zero omitted, Abs format (unit mm)*
G04 Created by KiCad (PCBNEW 9.0.3) date 2025-07-31 20:43:01*
%MOMM*%
%LPD*%
G01*
G04 APERTURE LIST*
G04 Aperture macros list*
%AMRoundRect*
0 Rectangle with rounded corners*
0 $1 Rounding radius*
0 $2 $3 $4 $5 $6 $7 $8 $9 X,Y pos of 4 corners*
0 Add a 4 corners polygon primitive as box body*
4,1,4,$2,$3,$4,$5,$6,$7,$8,$9,$2,$3,0*
0 Add four circle primitives for the rounded corners*
1,1,$1+$1,$2,$3*
1,1,$1+$1,$4,$5*
1,1,$1+$1,$6,$7*
1,1,$1+$1,$8,$9*
0 Add four rect primitives between the rounded corners*
20,1,$1+$1,$2,$3,$4,$5,0*
20,1,$1+$1,$4,$5,$6,$7,0*
20,1,$1+$1,$6,$7,$8,$9,0*
20,1,$1+$1,$8,$9,$2,$3,0*%
G04 Aperture macros list end*
%ADD10C,1.400000*%
%ADD11C,1.700000*%
%ADD12C,4.000000*%
%ADD13C,2.200000*%
%ADD14C,2.019000*%
%ADD15RoundRect,0.102000X-0.907500X-0.907500X0.907500X-0.907500X0.907500X0.907500X-0.907500X0.907500X0*%
%ADD16C,3.200000*%
%ADD17RoundRect,0.152400X1.063600X0.609600X-1.063600X0.609600X-1.063600X-0.609600X1.063600X-0.609600X0*%
%ADD18C,1.524000*%
%ADD19RoundRect,0.152400X-1.063600X-0.609600X1.063600X-0.609600X1.063600X0.609600X-1.063600X0.609600X0*%
%ADD20RoundRect,0.102000X0.907500X0.907500X-0.907500X0.907500X-0.907500X-0.907500X0.907500X-0.907500X0*%
%ADD21C,1.500000*%
%ADD22R,1.700000X1.700000*%
%ADD23O,1.700000X1.700000*%
G04 APERTURE END LIST*
D10*
%TO.C,R2*%
X129744973Y-100400300D03*
X129744973Y-95320300D03*
%TD*%
%TO.C,R1*%
X129729973Y-90000300D03*
X129729973Y-84920300D03*
%TD*%
D11*
%TO.C,SW4*%
X183968723Y-101600300D03*
D12*
X189048723Y-101600300D03*
D11*
X194128723Y-101600300D03*
D13*
X191588723Y-96520300D03*
X185238723Y-99060300D03*
%TD*%
D10*
%TO.C,R3*%
X129744973Y-109350300D03*
X129744973Y-104270300D03*
%TD*%
D14*
%TO.C,D4*%
X151682900Y-115650300D03*
D15*
X149142900Y-115650300D03*
%TD*%
D16*
%TO.C,H1*%
X105979973Y-102600300D03*
%TD*%
D10*
%TO.C,R4*%
X129744973Y-119740300D03*
X129744973Y-114660300D03*
%TD*%
D16*
%TO.C,H2*%
X189048723Y-85950300D03*
%TD*%
D17*
%TO.C,U1*%
X138505400Y-85270300D03*
D18*
X139340400Y-85270300D03*
D17*
X138505400Y-87810300D03*
D18*
X139340400Y-87810300D03*
D17*
X138505400Y-90350300D03*
D18*
X139340400Y-90350300D03*
D17*
X138505400Y-92890300D03*
D18*
X139340400Y-92890300D03*
D17*
X138505400Y-95430300D03*
D18*
X139340400Y-95430300D03*
D17*
X138505400Y-97970300D03*
D18*
X139340400Y-97970300D03*
D17*
X138505400Y-100510300D03*
D18*
X139340400Y-100510300D03*
X154580400Y-100510300D03*
D19*
X155415400Y-100510300D03*
D18*
X154580400Y-97970300D03*
D19*
X155415400Y-97970300D03*
D18*
X154580400Y-95430300D03*
D19*
X155415400Y-95430300D03*
D18*
X154580400Y-92890300D03*
D19*
X155415400Y-92890300D03*
D18*
X154580400Y-90350300D03*
D19*
X155415400Y-90350300D03*
D18*
X154580400Y-87810300D03*
D19*
X155415400Y-87810300D03*
D18*
X154580400Y-85270300D03*
D19*
X155415400Y-85270300D03*
%TD*%
D14*
%TO.C,D1*%
X141839973Y-108770300D03*
D20*
X144379973Y-108770300D03*
%TD*%
D14*
%TO.C,D2*%
X151729973Y-108770300D03*
D15*
X149189973Y-108770300D03*
%TD*%
D16*
%TO.C,H3*%
X188979973Y-119700300D03*
%TD*%
D11*
%TO.C,SW2*%
X164901223Y-101600300D03*
D12*
X169981223Y-101600300D03*
D11*
X175061223Y-101600300D03*
D13*
X172521223Y-96520300D03*
X166171223Y-99060300D03*
%TD*%
D21*
%TO.C,J3*%
X137689973Y-112880300D03*
%TD*%
D22*
%TO.C,J1*%
X135415400Y-85170300D03*
D23*
X135415400Y-87710300D03*
X135415400Y-90250300D03*
X135415400Y-92790300D03*
X135415400Y-95330300D03*
X135415400Y-97870300D03*
X135415400Y-100410300D03*
%TD*%
D22*
%TO.C,J2*%
X158490400Y-85280300D03*
D23*
X158490400Y-87820300D03*
X158490400Y-90360300D03*
X158490400Y-92900300D03*
X158490400Y-95440300D03*
X158490400Y-97980300D03*
X158490400Y-100520300D03*
%TD*%
D11*
%TO.C,SW1*%
X113960337Y-92988163D03*
D12*
X119040337Y-92988163D03*
D11*
X124120337Y-92988163D03*
D13*
X121580337Y-87908163D03*
X115230337Y-90448163D03*
%TD*%
D14*
%TO.C,D3*%
X141849973Y-115650300D03*
D20*
X144389973Y-115650300D03*
%TD*%
D11*
%TO.C,SW3*%
X113960337Y-111988163D03*
D12*
X119040337Y-111988163D03*
D11*
X124120337Y-111988163D03*
D13*
X121580337Y-106908163D03*
X115230337Y-109448163D03*
%TD*%
M02*
